<?xml version="1.0" encoding="utf-8"?>
<!-- Generator: Adobe Illustrator 16.0.3, SVG Export Plug-In . SVG Version: 6.00 Build 0)  -->
<!DOCTYPE svg PUBLIC "-//W3C//DTD SVG 1.1//EN" "http://www.w3.org/Graphics/SVG/1.1/DTD/svg11.dtd">
<svg version="1.1" id="Layer_1" xmlns="http://www.w3.org/2000/svg" xmlns:xlink="http://www.w3.org/1999/xlink" x="0px" y="0px"
	 width="252.284px" height="28.346px" viewBox="0 0 252.284 28.346" enable-background="new 0 0 252.284 28.346"
	 xml:space="preserve">
<g>
	<g>
		<g>
			<path fill="#FFFFFF" d="M9.248,12.412v4.253c0,0.252-0.021,0.461-0.064,0.619c0.023,0.549,0.076,0.961,0.155,1.248
				c0.081,0.285,0.247,0.51,0.497,0.676c0.251,0.164,0.652,0.287,1.211,0.375c0.641,0.074,0.96,0.291,0.96,0.648
				c0,0.416-0.235,0.619-0.71,0.619c-0.447,0-1.219-0.016-2.322-0.055c-1.1-0.041-1.921-0.061-2.462-0.061
				c-0.369,0-1.094,0.02-2.167,0.061c-1.078,0.039-1.834,0.055-2.274,0.055c-0.234,0-0.42-0.033-0.562-0.107
				c-0.142-0.07-0.213-0.242-0.213-0.512c0-0.209,0.086-0.373,0.255-0.482c0.17-0.111,0.364-0.17,0.588-0.17
				c0.6-0.078,1.036-0.205,1.309-0.371c0.273-0.166,0.448-0.393,0.526-0.684c0.078-0.287,0.119-0.701,0.119-1.242v-0.621V5.634
				V5.011c0-0.838-0.104-1.423-0.309-1.755C3.58,2.926,3.091,2.706,2.32,2.592c-0.34-0.039-0.595-0.1-0.767-0.181
				c-0.171-0.08-0.257-0.225-0.257-0.438c0-0.265,0.059-0.429,0.176-0.492C1.587,1.419,1.767,1.386,2.01,1.386
				c0.646,0,1.493,0.026,2.537,0.07c1.047,0.046,1.806,0.067,2.275,0.067c0.631,0,1.376-0.021,2.228-0.067
				c0.855-0.044,1.602-0.07,2.246-0.07c0.475,0,0.71,0.188,0.71,0.558c0,0.205-0.06,0.348-0.181,0.422
				c-0.121,0.075-0.34,0.15-0.658,0.226c-0.653,0.113-1.107,0.256-1.362,0.432C9.55,3.204,9.395,3.463,9.336,3.81
				C9.279,4.158,9.248,4.768,9.248,5.637v3.957c0,0.14-0.021,0.255-0.064,0.34c0.044,0.164,0.106,0.243,0.188,0.243
				c0.075,0,0.355-0.193,0.839-0.583c0.196-0.209,0.532-0.549,1.007-1.024c0.473-0.472,0.923-0.924,1.35-1.356
				c0.425-0.435,1.229-1.273,2.409-2.51c0.765-0.81,1.148-1.35,1.148-1.617c0-0.33-0.302-0.494-0.901-0.494
				c-0.473-0.045-0.816-0.106-1.024-0.181c-0.206-0.075-0.308-0.249-0.308-0.526c0-0.227,0.064-0.368,0.195-0.419
				c0.129-0.054,0.346-0.081,0.643-0.081h7.48h0.211c0.453,0,0.682,0.146,0.682,0.437c0,0.514-0.57,0.769-1.704,0.769
				c-1.304,0-2.432,0.424-3.378,1.275l-3.229,2.979c-0.769,0.768-1.152,1.276-1.152,1.525c0,0.196,0.146,0.435,0.44,0.712
				l7.196,8.419c0.74,0.906,1.246,1.453,1.515,1.645c0.222,0.182,0.536,0.299,0.942,0.348c0.408,0.053,0.667,0.098,0.783,0.139
				c0.111,0.041,0.169,0.199,0.169,0.479c0,0.494-0.424,0.738-1.273,0.738c-0.481,0-1.226-0.016-2.243-0.055
				c-1.016-0.041-1.767-0.061-2.256-0.061c-0.47,0-1.175,0.02-2.114,0.061c-0.938,0.039-1.628,0.055-2.069,0.055
				c-0.559,0-0.838-0.244-0.838-0.738c0-0.221,0.068-0.375,0.211-0.455c0.141-0.082,0.342-0.137,0.605-0.176
				c0.264-0.033,0.458-0.076,0.581-0.127c0.124-0.051,0.185-0.158,0.185-0.326c0-0.127-0.035-0.25-0.103-0.369
				c-0.068-0.117-0.17-0.25-0.306-0.4c-0.137-0.146-0.27-0.295-0.4-0.441l-4.395-5.466c-0.412-0.499-0.703-0.781-0.869-0.839
				c-0.085,0-0.159,0.184-0.217,0.56C9.227,12.159,9.248,12.271,9.248,12.412"/>
			<path fill="#FFFFFF" d="M23.265,10.43c-0.334-0.678-0.625-1.212-0.879-1.599c-0.252-0.387-0.463-0.648-0.633-0.786
				c-0.169-0.137-0.346-0.217-0.53-0.239c-0.185-0.021-0.351-0.039-0.497-0.048c-0.6-0.127-0.9-0.365-0.9-0.715
				c0-0.332,0.342-0.499,1.024-0.499h7.818c0.726,0,1.091,0.167,1.091,0.499c0,0.287-0.168,0.479-0.504,0.573
				c-0.336,0.093-0.674,0.187-1.012,0.278c-0.338,0.094-0.508,0.286-0.508,0.574c0,0.191,0.168,0.637,0.499,1.335l2.297,4.874
				c0.04,0.051,0.11,0.167,0.211,0.349c0.103,0.182,0.188,0.318,0.259,0.414c0.07,0.09,0.141,0.141,0.213,0.141
				c0.141,0,0.264-0.115,0.369-0.336c0.106-0.227,0.199-0.436,0.281-0.626l2.076-4.686c0.231-0.506,0.348-0.912,0.348-1.214
				c0-0.344-0.115-0.576-0.345-0.698c-0.228-0.122-0.565-0.207-1.007-0.25c-0.441-0.045-0.764-0.108-0.963-0.189
				c-0.2-0.082-0.299-0.259-0.299-0.538c0-0.332,0.354-0.499,1.061-0.499h5.304c0.323,0,0.54,0.028,0.649,0.086
				c0.107,0.059,0.162,0.195,0.162,0.413c0,0.42-0.281,0.656-0.84,0.712c-0.498,0.048-0.857,0.122-1.08,0.229
				c-0.225,0.106-0.475,0.377-0.748,0.812c-0.272,0.436-0.677,1.218-1.213,2.348l-4.56,9.604c-0.036,0.09-0.333,0.801-0.892,2.137
				c-0.559,1.33-0.862,2.082-0.912,2.246c-0.273,0.82-0.461,1.346-0.568,1.582c-0.107,0.232-0.297,0.406-0.575,0.527
				c-0.278,0.115-0.745,0.176-1.402,0.176c-0.919,0-1.604-0.111-2.054-0.328c-0.449-0.219-0.672-0.678-0.672-1.377
				c0-1.301,0.546-1.996,1.643-2.094c0.537,0.082,1.01,0.119,1.424,0.119c0.527,0,1.014-0.211,1.466-0.641
				c0.452-0.426,0.681-0.904,0.681-1.436c0-0.451-0.209-1.012-0.622-1.678L23.265,10.43z"/>
			<path fill="#FFFFFF" d="M40.634,11.951v-0.56c0-0.51-0.09-0.904-0.264-1.186c-0.178-0.28-0.555-0.432-1.131-0.459
				c-0.045,0-0.108,0.02-0.189,0.061c-0.257-0.051-0.444-0.107-0.564-0.174c-0.119-0.063-0.178-0.205-0.178-0.417
				c0-0.194,0.105-0.335,0.319-0.426c0.211-0.09,0.548-0.196,1.015-0.315c0.651-0.127,1.374-0.389,2.166-0.785
				c0.793-0.395,1.405-0.837,1.836-1.319c0.348-0.353,0.711-0.528,1.092-0.528c0.187,0,0.314,0.081,0.385,0.245
				c0.07,0.164,0.107,0.462,0.107,0.897v9.559c0,0.582-0.021,1.008-0.063,1.273c0.016,0.465,0.047,0.799,0.096,1.004
				c0.047,0.205,0.133,0.35,0.256,0.439c0.119,0.086,0.31,0.15,0.564,0.189c0.26,0.035,0.585,0.08,0.979,0.133
				c0.227,0.021,0.404,0.102,0.526,0.234c0.125,0.133,0.188,0.25,0.188,0.357c0,0.412-0.322,0.621-0.965,0.621h-7.76
				c-0.66,0-0.992-0.209-0.992-0.625c0-0.242,0.094-0.406,0.284-0.49c0.188-0.086,0.468-0.143,0.833-0.166
				c0.367-0.029,0.646-0.066,0.837-0.121c0.193-0.059,0.316-0.178,0.374-0.365c0.164-0.365,0.248-1.193,0.248-2.486V11.951z"/>
			<path fill="#FFFFFF" d="M40.134,2.353c0-0.711,0.281-1.28,0.846-1.71C41.544,0.212,42.175,0,42.869,0
				c0.734,0,1.371,0.205,1.913,0.62c0.544,0.413,0.816,0.992,0.816,1.733c0,0.802-0.275,1.428-0.826,1.873
				c-0.552,0.448-1.204,0.671-1.963,0.671c-0.743,0-1.374-0.231-1.895-0.687C40.395,3.754,40.134,3.135,40.134,2.353"/>
			<path fill="#FFFFFF" d="M48.792,9.991c-0.343-0.716-0.584-1.201-0.729-1.45c-0.148-0.251-0.328-0.438-0.544-0.566
				c-0.212-0.126-0.536-0.22-0.964-0.281c-0.277-0.039-0.466-0.094-0.565-0.156c-0.097-0.066-0.147-0.201-0.147-0.401
				c0-0.396,0.342-0.592,1.023-0.592h7.758c0.643,0,0.965,0.187,0.965,0.559c0,0.249-0.086,0.41-0.256,0.486
				s-0.434,0.132-0.791,0.167c-0.358,0.034-0.627,0.093-0.803,0.18c-0.178,0.081-0.267,0.26-0.267,0.533
				c0,0.1,0.046,0.273,0.137,0.519c0.091,0.244,0.159,0.449,0.206,0.604l2.205,4.964c0.231,0.604,0.408,0.905,0.529,0.905
				c0.161,0,0.325-0.262,0.492-0.783l1.651-3.661c0.476-1.051,0.712-1.777,0.712-2.178c-0.059-0.609-0.526-0.973-1.4-1.083
				c-0.379-0.046-0.645-0.1-0.795-0.164c-0.152-0.062-0.228-0.216-0.228-0.456c0-0.396,0.261-0.592,0.78-0.592h5.463
				c0.596,0,0.896,0.187,0.896,0.559c0,0.319-0.237,0.535-0.713,0.652c-0.711,0.101-1.171,0.21-1.38,0.326
				c-0.207,0.115-0.45,0.472-0.729,1.066l-5.09,10.618c-0.289,0.553-0.506,0.9-0.656,1.051c-0.149,0.146-0.42,0.221-0.807,0.221
				c-0.211,0-0.389-0.02-0.526-0.059c-0.14-0.041-0.247-0.105-0.325-0.195c-0.08-0.088-0.17-0.25-0.27-0.482
				c-0.104-0.236-0.174-0.393-0.213-0.477L48.792,9.991z"/>
			<path fill="#FFFFFF" d="M70.281,9.535c0,0.642,0.064,1.007,0.189,1.093c0.379,0.267,0.937,0.403,1.674,0.403
				c0.838,0,1.521-0.209,2.051-0.624c0.527-0.417,0.907-0.946,1.137-1.595c0.234-0.646,0.351-1.315,0.351-2.017
				c0-1.149-0.339-2.138-1.009-2.964c-0.678-0.827-1.56-1.238-2.649-1.238c-0.683,0-1.144,0.183-1.382,0.546
				c-0.24,0.365-0.361,0.909-0.361,1.635v1.398V9.535z M70.281,12.787v3.879c0,0.754,0.028,1.297,0.088,1.633
				c0.057,0.336,0.215,0.607,0.478,0.82c0.259,0.209,0.694,0.363,1.298,0.465c0.643,0.074,0.963,0.291,0.963,0.648
				c0,0.416-0.238,0.619-0.713,0.619c-0.446,0-1.219-0.016-2.321-0.055c-1.104-0.041-1.925-0.064-2.464-0.064
				c-0.37,0-1.092,0.023-2.17,0.064c-1.076,0.039-1.836,0.055-2.275,0.055c-0.232,0-0.419-0.033-0.563-0.107
				c-0.141-0.07-0.212-0.242-0.212-0.512c0-0.213,0.085-0.373,0.255-0.482c0.169-0.111,0.366-0.17,0.587-0.17
				c0.601-0.078,1.04-0.205,1.313-0.371c0.271-0.166,0.449-0.393,0.525-0.684c0.078-0.287,0.119-0.701,0.119-1.242v-0.621V5.634
				V5.011c0-0.599-0.038-1.051-0.107-1.35c-0.07-0.298-0.23-0.53-0.482-0.698c-0.248-0.165-0.645-0.289-1.184-0.371
				c-0.385-0.049-0.65-0.103-0.801-0.156c-0.149-0.058-0.225-0.189-0.225-0.4c0-0.433,0.238-0.647,0.713-0.647
				c0.621,0,1.33,0.023,2.119,0.068c0.787,0.045,1.418,0.066,1.894,0.066c1.021,0,2.171-0.021,3.448-0.066
				c1.274-0.045,2.353-0.068,3.226-0.068c1.118,0,2.023,0.068,2.718,0.207c0.696,0.142,1.361,0.411,2.008,0.816
				c1.609,1.017,2.418,2.476,2.418,4.382c-0.025,0.99-0.273,1.943-0.742,2.859c-0.47,0.916-1.169,1.666-2.088,2.25
				c-0.926,0.588-2.037,0.883-3.346,0.883c-0.538,0-1.002-0.045-1.398-0.129c-0.395-0.085-0.896-0.215-1.513-0.384
				c-0.611-0.171-1.019-0.257-1.223-0.257c-0.21,0-0.345,0.134-0.401,0.4C70.259,12.501,70.281,12.623,70.281,12.787"/>
			<path fill="#FFFFFF" d="M85.276,12.784c0,1.134,0.163,2.258,0.489,3.368c0.326,1.107,0.796,2.018,1.413,2.729
				c0.62,0.719,1.341,1.076,2.171,1.076c1.01,0,1.829-0.52,2.451-1.557c0.625-1.039,0.938-2.463,0.938-4.278
				c0-1.225-0.177-2.372-0.539-3.44c-0.357-1.069-0.844-1.918-1.459-2.542c-0.611-0.626-1.285-0.941-2.014-0.941
				c-0.652,0-1.238,0.232-1.764,0.692c-0.523,0.458-0.934,1.114-1.235,1.972C85.425,10.718,85.276,11.692,85.276,12.784
				 M80.246,13.593c0-1.434,0.416-2.719,1.254-3.851c0.836-1.136,1.93-2.011,3.281-2.634c1.35-0.621,2.768-0.93,4.25-0.93
				c1.252,0,2.41,0.189,3.465,0.568c1.056,0.377,1.969,0.898,2.734,1.563c0.764,0.664,1.355,1.433,1.777,2.308
				c0.419,0.874,0.629,1.783,0.629,2.726c0,1.504-0.419,2.84-1.254,4.004c-0.837,1.162-1.93,2.059-3.281,2.686
				c-1.348,0.633-2.768,0.945-4.253,0.945c-1.451,0-2.837-0.279-4.157-0.838c-1.315-0.557-2.386-1.395-3.211-2.514
				C80.656,16.509,80.246,15.166,80.246,13.593"/>
			<path fill="#FFFFFF" d="M98.433,17.16c0.051-0.422,0.104-0.709,0.17-0.857c0.063-0.148,0.254-0.227,0.572-0.227
				c0.278,0,0.529,0.193,0.746,0.578c0.221,0.385,0.491,0.855,0.808,1.41c0.318,0.559,0.749,1.014,1.291,1.363
				c0.54,0.354,1.269,0.527,2.19,0.527c0.412,0,0.855-0.072,1.328-0.215c0.47-0.141,0.87-0.367,1.207-0.67
				c0.338-0.303,0.506-0.682,0.506-1.139c0-0.564-0.216-1.018-0.648-1.359c-0.432-0.346-1.079-0.656-1.932-0.934
				c-1.215-0.393-2.07-0.678-2.561-0.857c-0.492-0.174-1.039-0.439-1.639-0.791c-0.604-0.35-1.092-0.785-1.471-1.304
				c-0.378-0.522-0.568-1.128-0.568-1.827c0-0.844,0.281-1.626,0.85-2.345c0.564-0.72,1.323-1.288,2.282-1.708
				c0.953-0.418,1.991-0.627,3.106-0.627c1.255,0,2.693,0.187,4.315,0.558c0.424,0.127,0.681,0.245,0.769,0.354
				c0.088,0.11,0.133,0.393,0.133,0.853v0.778c-0.045,0.278-0.102,0.582-0.17,0.909c-0.068,0.325-0.228,0.488-0.48,0.488
				c-0.287,0-0.649-0.238-1.084-0.714c-0.526-0.714-0.883-1.172-1.061-1.375c-0.181-0.204-0.443-0.384-0.789-0.537
				c-0.348-0.156-0.809-0.231-1.385-0.231c-0.729,0-1.338,0.138-1.821,0.415c-0.483,0.276-0.728,0.687-0.728,1.228
				c0,0.587,0.241,0.986,0.725,1.2c0.486,0.218,1.519,0.577,3.098,1.083c1.58,0.509,2.744,1.08,3.499,1.711
				c0.751,0.635,1.13,1.546,1.13,2.741c0,0.928-0.273,1.803-0.811,2.633c-0.541,0.822-1.357,1.49-2.447,2.002
				c-1.09,0.508-2.415,0.762-3.977,0.762c-1.747,0-3.201-0.309-4.35-0.93c-0.354-0.178-0.58-0.367-0.693-0.568
				c-0.117-0.203-0.174-0.551-0.174-1.045L98.433,17.16z"/>
			<path fill="#FFFFFF" d="M117.65,9.271v5.165c0,0.875,0.03,1.613,0.096,2.205c0.065,0.59,0.211,1.07,0.428,1.436
				c0.216,0.369,0.541,0.551,0.973,0.551c0.301,0,0.574-0.059,0.818-0.178c0.242-0.117,0.507-0.271,0.795-0.459
				c0.287-0.191,0.484-0.287,0.598-0.287c0.093,0,0.18,0.039,0.256,0.121c0.076,0.08,0.117,0.186,0.117,0.309
				c0,0.283-0.232,0.658-0.689,1.129c-0.459,0.469-1.059,0.883-1.804,1.24c-0.748,0.355-1.541,0.535-2.386,0.535
				c-1.17,0-2.098-0.396-2.791-1.186c-0.691-0.789-1.037-1.98-1.037-3.568v-6.55c0-0.76-0.039-1.229-0.127-1.41
				c-0.086-0.179-0.321-0.269-0.706-0.269c-0.249,0-0.48,0.021-0.688,0.061c-0.432-0.076-0.65-0.22-0.65-0.428
				c0-0.166,0.076-0.305,0.228-0.421c0.149-0.115,0.397-0.253,0.736-0.413c1.972-0.782,3.349-1.899,4.13-3.345
				c0.367-0.681,0.729-1.024,1.086-1.024c0.335,0,0.502,0.228,0.502,0.683v0.461v2.142c0,0.394,0.027,0.633,0.088,0.72
				c0.057,0.085,0.245,0.147,0.563,0.183c0.128-0.046,0.251-0.07,0.373-0.07h1.707h0.349c0.262,0,0.441,0.038,0.538,0.107
				c0.095,0.07,0.142,0.229,0.142,0.479c0,0.41-0.059,0.656-0.182,0.738c-0.119,0.085-0.423,0.125-0.91,0.125h-1.519
				c-0.382,0-0.631,0.017-0.757,0.053c-0.125,0.037-0.201,0.125-0.229,0.27C117.665,8.521,117.65,8.818,117.65,9.271"/>
		</g>
		<g>
			<path fill="#FFFFFF" d="M135.325,17.164l5.219-4.278c1.944-1.607,2.712-2.47,2.712-3.766c0-1.323-0.876-2.033-2.108-2.033
				c-1.213,0-2.04,0.672-3.203,2.102l-2.425-1.949c1.55-2.103,3.045-3.248,5.854-3.248c3.251,0,5.4,1.903,5.4,4.884
				c0,2.62-1.346,3.926-4.124,6.075l-2.553,1.969h6.832v2.977h-11.604V17.164z"/>
			<path fill="#FFFFFF" d="M148.843,12.053c0-4.552,2.825-8.106,6.991-8.106c4.145,0,6.945,3.519,6.945,8.106
				c0,4.55-2.801,8.118-6.994,8.118C151.6,20.171,148.843,16.652,148.843,12.053z M159.241,12.053c0-2.837-1.39-4.995-3.455-4.995
				c-2.062,0-3.4,2.079-3.4,4.995c0,2.878,1.366,5.009,3.449,5.009C157.918,17.062,159.241,14.951,159.241,12.053z"/>
			<path fill="#FFFFFF" d="M163.937,4.235h-0.958V3.598h2.605v0.637h-0.957v2.504h-0.69V4.235z"/>
			<path fill="#FFFFFF" d="M166.638,3.598h0.692V4.84h1.273V3.598h0.693v3.141h-0.693V5.478h-1.273v1.261h-0.692V3.598z"/>
			<g>
				<path fill="#FFFFFF" d="M179.394,3.598h1.195l2.524,5.931h-1.355l-0.537-1.318h-2.492l-0.538,1.318h-1.321L179.394,3.598z
					 M180.757,7.062l-0.782-1.909l-0.783,1.909H180.757z"/>
				<path fill="#FFFFFF" d="M185.003,3.635h1.194l2.762,3.631V3.635h1.28v5.893h-1.104l-2.854-3.745v3.745h-1.278V3.635z"/>
				<path fill="#FFFFFF" d="M192.631,3.635h1.197l2.76,3.631V3.635h1.279v5.893h-1.104l-2.853-3.745v3.745h-1.28V3.635z"/>
				<path fill="#FFFFFF" d="M200.322,3.635h1.295v5.893h-1.295V3.635z"/>
				<path fill="#FFFFFF" d="M203.564,3.635h1.431l1.538,4.152l1.542-4.152h1.397l-2.381,5.935h-1.147L203.564,3.635z"/>
				<path fill="#FFFFFF" d="M211.361,3.635h4.443v1.157h-3.154v1.192h2.777v1.157h-2.777v1.236h3.198v1.151h-4.487V3.635z"/>
				<path fill="#FFFFFF" d="M217.981,3.635h2.693c0.749,0,1.329,0.215,1.716,0.6c0.328,0.329,0.506,0.792,0.506,1.364
					c0,0.952-0.512,1.548-1.263,1.826l1.441,2.104h-1.516l-1.28-1.884h-1.001v1.884h-1.297V3.635z M220.59,6.501
					c0.632,0,0.994-0.338,0.994-0.853c0-0.554-0.388-0.838-1.019-0.838h-1.288v1.691H220.59z"/>
				<path fill="#FFFFFF" d="M224.641,8.672l0.767-0.917c0.528,0.437,1.088,0.714,1.759,0.714c0.528,0,0.85-0.21,0.85-0.574
					c0-0.328-0.2-0.495-1.187-0.748c-1.187-0.303-1.95-0.632-1.95-1.816c0-1.07,0.855-1.777,2.06-1.777
					c0.859,0,1.591,0.266,2.189,0.746l-0.672,0.977c-0.522-0.362-1.037-0.58-1.532-0.58c-0.497,0-0.761,0.229-0.761,0.53
					c0,0.387,0.254,0.513,1.272,0.776c1.194,0.312,1.869,0.738,1.869,1.783c0,1.169-0.892,1.826-2.163,1.826
					C226.25,9.613,225.348,9.301,224.641,8.672z"/>
				<path fill="#FFFFFF" d="M233.306,3.598h1.194l2.526,5.931h-1.357l-0.537-1.318h-2.49l-0.539,1.318h-1.323L233.306,3.598z
					 M234.672,7.062l-0.786-1.909l-0.782,1.909H234.672z"/>
				<path fill="#FFFFFF" d="M238.918,3.635h2.692c0.746,0,1.328,0.215,1.713,0.6c0.33,0.329,0.508,0.792,0.508,1.364
					c0,0.952-0.516,1.548-1.263,1.826l1.439,2.104h-1.516l-1.279-1.884h-1.002v1.884h-1.293V3.635z M241.527,6.501
					c0.629,0,0.99-0.338,0.99-0.853c0-0.554-0.389-0.838-1.017-0.838h-1.289v1.691H241.527z"/>
				<path fill="#FFFFFF" d="M247.427,7.208l-2.264-3.573h1.515l1.407,2.369l1.429-2.369h1.474l-2.264,3.548v2.345h-1.297V7.208z"/>
			</g>
			<g>
				<path fill="#FFFFFF" d="M176.87,19.251l0.768-0.916c0.529,0.438,1.084,0.713,1.759,0.713c0.529,0,0.851-0.209,0.851-0.572
					c0-0.33-0.205-0.496-1.188-0.748c-1.188-0.305-1.951-0.633-1.951-1.816c0-1.07,0.857-1.776,2.06-1.776
					c0.861,0,1.594,0.266,2.189,0.745l-0.674,0.979c-0.522-0.363-1.035-0.578-1.531-0.578s-0.758,0.227-0.758,0.529
					c0,0.385,0.252,0.51,1.272,0.773c1.194,0.313,1.868,0.74,1.868,1.783c0,1.168-0.895,1.826-2.162,1.826
					C178.48,20.193,177.576,19.882,176.87,19.251z"/>
				<path fill="#FFFFFF" d="M183.642,14.217h4.442v1.154h-3.157v1.193h2.78v1.156h-2.78v1.238h3.2v1.148h-4.485V14.217z"/>
				<path fill="#FFFFFF" d="M190.262,14.217h2.69c0.75,0,1.331,0.214,1.718,0.597c0.328,0.33,0.507,0.791,0.507,1.365
					c0,0.951-0.512,1.549-1.262,1.826l1.438,2.102h-1.517l-1.279-1.883h-1.003v1.883h-1.293V14.217z M192.87,17.082
					c0.631,0,0.992-0.338,0.992-0.854c0-0.555-0.388-0.838-1.017-0.838h-1.29v1.691H192.87z"/>
				<path fill="#FFFFFF" d="M197.387,14.217h1.292v5.89h-1.292V14.217z"/>
				<path fill="#FFFFFF" d="M201.132,14.217h4.444v1.154h-3.156v1.193h2.777v1.156h-2.777v1.238h3.197v1.148h-4.485V14.217z"/>
				<path fill="#FFFFFF" d="M207.346,19.251l0.769-0.916c0.529,0.438,1.082,0.713,1.759,0.713c0.529,0,0.849-0.209,0.849-0.572
					c0-0.33-0.202-0.496-1.187-0.748c-1.187-0.305-1.954-0.633-1.954-1.816c0-1.07,0.859-1.776,2.064-1.776
					c0.855,0,1.588,0.266,2.188,0.745l-0.675,0.979c-0.523-0.363-1.035-0.578-1.532-0.578c-0.496,0-0.758,0.227-0.758,0.529
					c0,0.385,0.254,0.51,1.274,0.773c1.192,0.313,1.864,0.74,1.864,1.783c0,1.168-0.893,1.826-2.161,1.826
					C208.957,20.193,208.053,19.882,207.346,19.251z"/>
			</g>
		</g>
	</g>
</g>
</svg>
