<?xml version="1.0" encoding="utf-8"?>
<!-- Generator: Adobe Illustrator 16.0.3, SVG Export Plug-In . SVG Version: 6.00 Build 0)  -->
<!DOCTYPE svg PUBLIC "-//W3C//DTD SVG 1.1//EN" "http://www.w3.org/Graphics/SVG/1.1/DTD/svg11.dtd">
<svg version="1.1" id="Layer_1" xmlns="http://www.w3.org/2000/svg" xmlns:xlink="http://www.w3.org/1999/xlink" x="0px" y="0px"
	 width="300px" height="50px" viewBox="0 0 300 50" enable-background="new 0 0 300 50" xml:space="preserve">
<g>
	<path fill="#FFCB05" d="M16.801,14.864h-5.484v19.147h-4.7V14.864H1v-3.835h16.563L16.801,14.864z"/>
	<path fill="#FFCB05" d="M29.271,34.012V22.636c0-1.689-0.461-2.315-1.72-2.315c-1.091,0-2.511,0.66-3.501,1.553v12.138h-4.5V14.434
		c0-1.587-0.131-3.174-0.33-3.868l4.531-1.06c0.199,0.928,0.299,2.514,0.299,4.135v3.372c0,0.527-0.069,1.223-0.069,1.421
		c1.156-1.092,3.078-1.818,4.795-1.818c2.146,0,3.868,0.924,4.397,2.414c0.331,0.958,0.433,1.521,0.433,3.14v11.84H29.271z"/>
	<path fill="#FFCB05" d="M42.366,26.935v0.132c0,2.61,1.29,4.101,3.571,4.101c1.521,0,2.94-0.562,4.297-1.69l1.719,2.648
		c-1.948,1.587-4.001,2.347-6.378,2.347c-4.864,0-8.004-3.437-8.004-8.762c0-3.041,0.628-5.06,2.115-6.712
		c1.39-1.554,3.075-2.281,5.322-2.281c1.951,0,3.804,0.661,4.895,1.785c1.555,1.586,2.252,3.869,2.252,7.407v1.025H42.366z
		 M47.557,23.494c0-1.256-0.13-1.919-0.529-2.548c-0.43-0.658-1.056-0.989-1.95-0.989c-1.685,0-2.646,1.321-2.646,3.669v0.065h5.125
		V23.494z"/>
	<path fill="#FFCB05" d="M76.227,14.864h-5.491v19.147h-4.693V14.864h-5.62v-3.835h16.563L76.227,14.864z"/>
	<path fill="#FFCB05" d="M81.187,15.164c-1.489,0-2.711-1.225-2.711-2.747c0-1.521,1.256-2.745,2.775-2.745
		c1.49,0,2.68,1.224,2.68,2.745C83.931,13.938,82.706,15.164,81.187,15.164z M78.975,34.012V17.378l4.427-0.695v17.329H78.975z"/>
	<path fill="#FFCB05" d="M102.02,20.188c-0.434,0-0.896-0.066-1.157-0.101c0.661,0.794,0.992,1.655,0.992,2.778
		c0,2.909-2.646,5.025-6.251,5.025c-0.199,0-0.331,0-0.661-0.031c-1.125,0.526-1.754,0.925-1.754,1.385c0,0.231,0.265,0.4,0.729,0.4
		l2.381,0.031c2.577,0.035,3.936,0.43,5.125,1.522c0.99,0.926,1.453,2.082,1.453,3.606c0,1.417-0.427,2.51-1.353,3.501
		c-1.486,1.591-4.034,2.187-6.68,2.187c-2.414,0-4.895-0.4-6.416-1.818c-0.928-0.862-1.389-1.854-1.389-3.011
		c0-0.928,0.23-1.388,0.398-1.723h4.098c-0.165,0.4-0.196,0.63-0.196,1.094c0,1.356,1.121,2.082,3.174,2.082
		c1.126,0,2.082-0.133,2.78-0.562c0.658-0.398,1.088-1.023,1.088-1.723c0-1.518-1.355-1.98-3.107-2.012l-1.884-0.034
		c-1.984-0.035-3.274-0.2-4.07-0.53c-0.793-0.296-1.29-1.058-1.29-2.217c0-1.09,0.334-2.113,3.11-2.841
		c-2.447-0.629-3.639-2.185-3.639-4.696c0-3.472,2.813-5.722,7.144-5.722c0.96,0,1.82,0.134,3.042,0.431
		c0.925,0.232,1.523,0.364,2.084,0.364c1.225,0,2.48-0.529,3.505-1.455l1.851,2.809C104.166,19.823,103.24,20.188,102.02,20.188z
		 M94.613,20.023c-1.69,0-2.646,0.923-2.646,2.512c0,1.72,1.058,2.415,2.612,2.415c1.751,0,2.713-0.861,2.713-2.415
		C97.292,20.946,96.298,20.023,94.613,20.023z"/>
	<path fill="#FFCB05" d="M110.451,26.935v0.132c0,2.61,1.29,4.101,3.57,4.101c1.521,0,2.945-0.562,4.3-1.69l1.717,2.648
		c-1.951,1.587-3.998,2.347-6.381,2.347c-4.862,0-8.002-3.437-8.002-8.762c0-3.041,0.629-5.06,2.116-6.712
		c1.389-1.554,3.075-2.281,5.325-2.281c1.95,0,3.801,0.661,4.895,1.785c1.555,1.586,2.247,3.869,2.247,7.407v1.025H110.451z
		 M115.642,23.494c0-1.256-0.13-1.919-0.526-2.548c-0.431-0.658-1.06-0.989-1.955-0.989c-1.685,0-2.645,1.321-2.645,3.669v0.065
		h5.126V23.494z"/>
	<path fill="#FFCB05" d="M132.144,20.946c-0.433-0.229-0.795-0.328-1.29-0.328c-0.995,0-1.886,0.461-2.715,1.422v11.971h-4.43
		V22.699c0-2.28-0.266-4-0.627-4.959l3.966-1.057c0.399,0.695,0.629,1.455,0.695,2.415c0.96-1.292,2.315-2.415,3.967-2.415
		c0.663,0,0.962,0.066,1.654,0.364L132.144,20.946z"/>
	<path fill="#FFCB05" d="M152.25,34.401c-3.18,0-5.625-1.021-7.51-3.168c-1.851-2.083-2.776-4.863-2.776-8.233
		c0-2.877,0.493-5.159,1.555-7.144c1.781-3.34,5.091-5.325,8.796-5.325c2.277,0,4.562,0.728,5.816,1.818l-2.085,3.143
		c-1.156-0.86-2.376-1.29-3.666-1.29c-1.556,0-3.076,0.761-3.901,1.984c-0.894,1.322-1.29,3.239-1.29,5.918
		c0,3.141,0.263,4.892,0.957,6.151c0.925,1.686,2.449,2.58,4.431,2.58c1.355,0,2.58-0.399,3.935-1.49l2.117,2.91
		C156.809,33.743,154.858,34.401,152.25,34.401z"/>
	<path fill="#FFCB05" d="M172.652,32.026c-1.293,1.453-2.979,2.35-5.589,2.35c-4.597,0-7.61-3.44-7.61-8.766
		c0-5.322,3.044-8.861,7.61-8.861c2.412,0,4.296,0.827,5.751,2.546c1.355,1.586,1.954,3.439,1.954,6.181
		C174.768,28.387,174.104,30.371,172.652,32.026z M169.044,20.915c-0.427-0.562-1.124-0.891-1.916-0.891
		c-1.059,0-1.916,0.662-2.284,1.72c-0.299,0.893-0.459,2.082-0.459,3.768c0,1.953,0.197,3.408,0.561,4.266
		c0.396,0.924,1.391,1.391,2.247,1.391c1.92,0,2.745-1.722,2.745-5.719C169.938,23.162,169.643,21.676,169.044,20.915z"/>
	<path fill="#FFCB05" d="M187.564,34.012V23c0-1.921-0.333-2.482-1.489-2.482c-0.891,0-2.05,0.595-3.079,1.522v11.971h-4.426V21.743
		c0-1.455-0.199-2.846-0.595-3.97l3.934-1.123c0.396,0.693,0.63,1.42,0.63,2.116c0.66-0.463,1.225-0.859,1.947-1.257
		c0.897-0.463,2.054-0.729,3.044-0.729c1.885,0,3.537,0.992,4.066,2.447c0.23,0.627,0.331,1.357,0.331,2.414v12.37H187.564z"/>
	<path fill="#FFCB05" d="M204.857,13.312c-0.959-0.464-1.289-0.563-1.818-0.563c-1.127,0-1.852,0.695-1.852,1.918v2.413h4.297
		l-1.129,3.042h-3.137v13.889h-4.331V20.123h-1.521V17.08h1.62c-0.1-0.694-0.165-1.555-0.165-2.313c0-3.34,1.985-5.26,5.46-5.26
		c1.451,0,2.645,0.299,3.996,1.06L204.857,13.312z"/>
	<path fill="#FFCB05" d="M210.743,26.935v0.132c0,2.61,1.291,4.101,3.571,4.101c1.521,0,2.941-0.562,4.3-1.69l1.717,2.648
		c-1.95,1.587-4.001,2.347-6.381,2.347c-4.861,0-8-3.437-8-8.762c0-3.041,0.629-5.06,2.114-6.712
		c1.39-1.554,3.075-2.281,5.325-2.281c1.95,0,3.805,0.661,4.892,1.785c1.556,1.586,2.25,3.869,2.25,7.407v1.025H210.743z
		 M215.935,23.494c0-1.256-0.134-1.919-0.527-2.548c-0.434-0.658-1.062-0.989-1.954-0.989c-1.685,0-2.646,1.321-2.646,3.669v0.065
		h5.126V23.494z"/>
	<path fill="#FFCB05" d="M232.437,20.946c-0.434-0.229-0.795-0.328-1.291-0.328c-0.993,0-1.887,0.461-2.713,1.422v11.971h-4.432
		V22.699c0-2.28-0.262-4-0.629-4.959l3.969-1.057c0.4,0.695,0.627,1.455,0.696,2.415c0.958-1.292,2.314-2.415,3.966-2.415
		c0.664,0,0.964,0.066,1.654,0.364L232.437,20.946z"/>
	<path fill="#FFCB05" d="M239.114,26.935v0.132c0,2.61,1.292,4.101,3.569,4.101c1.524,0,2.942-0.562,4.3-1.69l1.722,2.648
		c-1.952,1.587-4.005,2.347-6.382,2.347c-4.861,0-8.005-3.437-8.005-8.762c0-3.041,0.629-5.06,2.119-6.712
		c1.389-1.554,3.074-2.281,5.32-2.281c1.951,0,3.805,0.661,4.896,1.785c1.554,1.586,2.249,3.869,2.249,7.407v1.025H239.114z
		 M244.308,23.494c0-1.256-0.134-1.919-0.529-2.548c-0.432-0.658-1.06-0.989-1.951-0.989c-1.686,0-2.648,1.321-2.648,3.669v0.065
		h5.129V23.494z"/>
	<path fill="#FFCB05" d="M261.371,34.012V23c0-1.921-0.335-2.482-1.487-2.482c-0.897,0-2.053,0.595-3.079,1.522v11.971h-4.431
		V21.743c0-1.455-0.199-2.846-0.592-3.97l3.929-1.123c0.399,0.693,0.63,1.42,0.63,2.116c0.667-0.463,1.225-0.859,1.954-1.257
		c0.891-0.463,2.051-0.729,3.044-0.729c1.883,0,3.533,0.992,4.066,2.447c0.227,0.627,0.327,1.357,0.327,2.414v12.37H261.371z"/>
	<path fill="#FFCB05" d="M281.208,33.351c-1.188,0.691-2.514,1.051-4.131,1.051c-4.664,0-7.376-3.234-7.376-8.726
		c0-3.901,1.489-6.479,3.473-7.835c1.124-0.761,2.775-1.257,4.199-1.257c1.124,0,2.345,0.266,3.271,0.759
		c0.629,0.332,0.925,0.564,1.655,1.19l-2.146,2.912c-0.896-0.827-1.852-1.323-2.681-1.323c-1.984,0-2.876,1.718-2.876,5.688
		c0,2.215,0.296,3.536,0.86,4.264c0.461,0.596,1.224,0.961,1.984,0.961c1.022,0,1.951-0.43,3.04-1.39l0.262-0.23l2.021,2.675
		C282.103,32.752,281.803,32.984,281.208,33.351z"/>
	<path fill="#FFCB05" d="M289.21,26.935v0.132c0,2.61,1.293,4.101,3.57,4.101c1.523,0,2.945-0.562,4.297-1.69l1.724,2.648
		c-1.95,1.587-4.001,2.347-6.385,2.347c-4.857,0-8.002-3.437-8.002-8.762c0-3.041,0.63-5.06,2.119-6.712
		c1.387-1.554,3.075-2.281,5.321-2.281c1.952,0,3.803,0.661,4.896,1.785c1.551,1.586,2.249,3.869,2.249,7.407v1.025H289.21z
		 M294.404,23.494c0-1.256-0.132-1.919-0.53-2.548c-0.431-0.658-1.056-0.989-1.95-0.989c-1.686,0-2.648,1.321-2.648,3.669v0.065
		h5.129V23.494z"/>
</g>
</svg>
