<?xml version="1.0" encoding="utf-8"?>
<!-- Generator: Adobe Illustrator 16.0.3, SVG Export Plug-In . SVG Version: 6.00 Build 0)  -->
<!DOCTYPE svg PUBLIC "-//W3C//DTD SVG 1.1//EN" "http://www.w3.org/Graphics/SVG/1.1/DTD/svg11.dtd">
<svg version="1.1" id="Layer_1" xmlns="http://www.w3.org/2000/svg" xmlns:xlink="http://www.w3.org/1999/xlink" x="0px" y="0px"
	 width="779px" height="80px" viewBox="0 0 779 80" enable-background="new 0 0 779 80" xml:space="preserve">
<g>
	<g>
		<path fill="#FFCB05" d="M145.532,17.389h-12.234v42.714h-10.482V17.389h-12.534V8.832h36.953L145.532,17.389z"/>
		<path fill="#FFCB05" d="M173.351,60.104V34.726c0-3.768-1.029-5.165-3.837-5.165c-2.433,0-5.603,1.474-7.813,3.465v27.078h-10.038
			V16.43c0-3.542-0.292-7.083-0.737-8.63l10.107-2.363c0.445,2.068,0.667,5.606,0.667,9.225v7.525c0,1.175-0.153,2.728-0.153,3.17
			c2.579-2.437,6.867-4.056,10.698-4.056c4.79,0,8.627,2.061,9.809,5.384c0.737,2.141,0.966,3.396,0.966,7.007v26.414H173.351z"/>
		<path fill="#FFCB05" d="M202.567,44.316v0.292c0,5.825,2.878,9.147,7.966,9.147c3.393,0,6.562-1.251,9.586-3.767l3.837,5.908
			c-4.344,3.538-8.925,5.234-14.229,5.234c-10.851,0-17.858-7.668-17.858-19.547c0-6.787,1.404-11.288,4.72-14.975
			c3.101-3.465,6.861-5.088,11.873-5.088c4.352,0,8.488,1.474,10.92,3.983c3.469,3.538,5.026,8.63,5.026,16.526v2.286H202.567z
			 M214.148,36.641c0-2.802-0.292-4.282-1.182-5.683c-0.959-1.47-2.356-2.207-4.351-2.207c-3.761,0-5.902,2.947-5.902,8.185v0.146
			h11.435V36.641z"/>
		<path fill="#FFCB05" d="M278.107,17.389h-12.248v42.714H255.39V17.389h-12.54V8.832h36.953L278.107,17.389z"/>
		<path fill="#FFCB05" d="M289.173,18.057c-3.322,0-6.047-2.736-6.047-6.128s2.802-6.125,6.193-6.125
			c3.323,0,5.978,2.732,5.978,6.125S292.566,18.057,289.173,18.057z M284.238,60.104V22.995l9.877-1.55v38.658H284.238z"/>
		<path fill="#FFCB05" d="M335.65,29.265c-0.967,0-1.995-0.146-2.579-0.223c1.474,1.769,2.211,3.691,2.211,6.198
			c0,6.49-5.902,11.21-13.945,11.21c-0.445,0-0.737,0-1.474-0.069c-2.51,1.175-3.913,2.064-3.913,3.093
			c0,0.516,0.59,0.891,1.626,0.891l5.311,0.069c5.749,0.076,8.779,0.959,11.435,3.399c2.211,2.064,3.24,4.643,3.24,8.043
			c0,3.162-0.953,5.603-3.017,7.813c-3.315,3.545-9.002,4.873-14.904,4.873c-5.387,0-10.92-0.89-14.313-4.053
			c-2.071-1.926-3.1-4.136-3.1-6.715c0-2.071,0.515-3.1,0.89-3.844h9.141c-0.368,0.89-0.438,1.403-0.438,2.439
			c0,3.024,2.502,4.644,7.083,4.644c2.509,0,4.643-0.299,6.2-1.251c1.467-0.89,2.426-2.287,2.426-3.844
			c0-3.386-3.024-4.422-6.93-4.491l-4.206-0.076c-4.428-0.077-7.306-0.444-9.079-1.181c-1.772-0.662-2.878-2.357-2.878-4.944
			c0-2.432,0.744-4.719,6.938-6.339c-5.457-1.404-8.119-4.873-8.119-10.477c0-7.747,6.277-12.766,15.939-12.766
			c2.141,0,4.059,0.299,6.785,0.963c2.064,0.518,3.398,0.81,4.65,0.81c2.732,0,5.533-1.178,7.82-3.246l4.129,6.27
			C340.439,28.452,338.375,29.265,335.65,29.265z M319.126,28.896c-3.768,0-5.901,2.062-5.901,5.606
			c0,3.835,2.356,5.386,5.825,5.386c3.907,0,6.055-1.92,6.055-5.386C325.104,30.958,322.887,28.896,319.126,28.896z"/>
		<path fill="#FFCB05" d="M354.459,44.316v0.292c0,5.825,2.878,9.147,7.966,9.147c3.393,0,6.569-1.251,9.593-3.767l3.83,5.908
			c-4.352,3.538-8.918,5.234-14.236,5.234c-10.844,0-17.851-7.668-17.851-19.547c0-6.787,1.404-11.288,4.72-14.975
			c3.1-3.465,6.86-5.088,11.879-5.088c4.352,0,8.48,1.474,10.92,3.983c3.469,3.538,5.012,8.63,5.012,16.526v2.286H354.459z
			 M366.041,36.641c0-2.802-0.292-4.282-1.175-5.683c-0.959-1.47-2.363-2.207-4.358-2.207c-3.76,0-5.901,2.947-5.901,8.185v0.146
			h11.435V36.641z"/>
		<path fill="#FFCB05" d="M402.855,30.958c-0.967-0.511-1.773-0.733-2.879-0.733c-2.217,0-4.205,1.029-6.054,3.173v26.706h-9.884
			V34.868c0-5.088-0.592-8.925-1.397-11.063l8.849-2.359c0.89,1.55,1.404,3.246,1.55,5.387c2.14-2.881,5.164-5.387,8.849-5.387
			c1.48,0,2.148,0.149,3.691,0.813L402.855,30.958z"/>
		<path fill="#FFCB05" d="M447.711,60.979c-7.09,0-12.547-2.279-16.752-7.068c-4.129-4.651-6.193-10.852-6.193-18.371
			c0-6.419,1.098-11.512,3.469-15.936c3.975-7.452,11.357-11.88,19.623-11.88c5.08,0,10.176,1.624,12.979,4.057l-4.65,7.01
			c-2.58-1.919-5.305-2.878-8.182-2.878c-3.469,0-6.861,1.7-8.703,4.429c-1.994,2.95-2.879,7.225-2.879,13.203
			c0,7.005,0.584,10.912,2.135,13.72c2.064,3.761,5.463,5.756,9.885,5.756c3.023,0,5.754-0.89,8.779-3.323l4.721,6.494
			C457.881,59.505,453.529,60.979,447.711,60.979z"/>
		<path fill="#FFCB05" d="M493.229,55.675c-2.885,3.24-6.646,5.242-12.471,5.242c-10.254,0-16.975-7.676-16.975-19.555
			c0-11.874,6.791-19.767,16.975-19.767c5.381,0,9.586,1.842,12.832,5.679c3.023,3.538,4.357,7.674,4.357,13.79
			C497.947,47.556,496.467,51.983,493.229,55.675z M485.18,30.885c-0.953-1.251-2.51-1.988-4.275-1.988
			c-2.363,0-4.275,1.478-5.096,3.837c-0.668,1.992-1.023,4.644-1.023,8.406c0,4.358,0.439,7.604,1.254,9.517
			c0.881,2.064,3.1,3.1,5.012,3.1c4.281,0,6.123-3.836,6.123-12.755C487.174,35.9,486.514,32.584,485.18,30.885z"/>
		<path fill="#FFCB05" d="M526.496,60.104V35.539c0-4.286-0.742-5.537-3.322-5.537c-1.986,0-4.574,1.328-6.867,3.396v26.706h-9.879
			v-27.37c0-3.246-0.443-6.346-1.326-8.856l8.779-2.506c0.883,1.546,1.404,3.17,1.404,4.724c1.473-1.036,2.73-1.919,4.344-2.805
			c2.002-1.032,4.582-1.626,6.791-1.626c4.205,0,7.891,2.214,9.072,5.46c0.514,1.4,0.736,3.027,0.736,5.384v27.595H526.496z"/>
		<path fill="#FFCB05" d="M565.076,13.924c-2.141-1.036-2.877-1.254-4.059-1.254c-2.51,0-4.129,1.55-4.129,4.278v5.384h9.586
			l-2.518,6.788h-7v30.984h-9.662V29.12h-3.393v-6.788h3.615c-0.223-1.55-0.369-3.469-0.369-5.161
			c0-7.452,4.428-11.734,12.18-11.734c3.238,0,5.9,0.667,8.918,2.363L565.076,13.924z"/>
		<path fill="#FFCB05" d="M578.207,44.316v0.292c0,5.825,2.879,9.147,7.967,9.147c3.393,0,6.563-1.251,9.592-3.767l3.83,5.908
			c-4.35,3.538-8.926,5.234-14.234,5.234c-10.846,0-17.852-7.668-17.852-19.547c0-6.787,1.404-11.288,4.721-14.975
			c3.1-3.465,6.859-5.088,11.879-5.088c4.352,0,8.488,1.474,10.914,3.983c3.467,3.538,5.018,8.63,5.018,16.526v2.286H578.207z
			 M589.789,36.641c0-2.802-0.299-4.282-1.176-5.683c-0.967-1.47-2.369-2.207-4.357-2.207c-3.762,0-5.902,2.947-5.902,8.185v0.146
			h11.436V36.641z"/>
		<path fill="#FFCB05" d="M626.602,30.958c-0.965-0.511-1.771-0.733-2.877-0.733c-2.217,0-4.213,1.029-6.055,3.173v26.706h-9.885
			V34.868c0-5.088-0.584-8.925-1.404-11.063l8.855-2.359c0.891,1.55,1.398,3.246,1.551,5.387c2.141-2.881,5.164-5.387,8.85-5.387
			c1.48,0,2.146,0.149,3.691,0.813L626.602,30.958z"/>
		<path fill="#FFCB05" d="M641.5,44.316v0.292c0,5.825,2.883,9.147,7.965,9.147c3.4,0,6.563-1.251,9.594-3.767l3.836,5.908
			c-4.352,3.538-8.932,5.234-14.236,5.234c-10.844,0-17.857-7.668-17.857-19.547c0-6.787,1.404-11.288,4.729-14.975
			c3.098-3.465,6.859-5.088,11.871-5.088c4.352,0,8.488,1.474,10.922,3.983c3.467,3.538,5.018,8.63,5.018,16.526v2.286H641.5z
			 M653.088,36.641c0-2.802-0.301-4.282-1.184-5.683c-0.959-1.47-2.361-2.207-4.35-2.207c-3.762,0-5.91,2.947-5.91,8.185v0.146
			h11.443V36.641z"/>
		<path fill="#FFCB05" d="M691.152,60.104V35.539c0-4.286-0.744-5.537-3.316-5.537c-2.002,0-4.58,1.328-6.867,3.396v26.706h-9.885
			v-27.37c0-3.246-0.445-6.346-1.322-8.856l8.766-2.506c0.891,1.546,1.404,3.17,1.404,4.724c1.488-1.036,2.732-1.919,4.359-2.805
			c1.988-1.032,4.574-1.626,6.791-1.626c4.199,0,7.883,2.214,9.072,5.46c0.506,1.4,0.729,3.027,0.729,5.384v27.595H691.152z"/>
		<path fill="#FFCB05" d="M735.41,58.629c-2.648,1.544-5.609,2.35-9.217,2.35c-10.406,0-16.455-7.223-16.455-19.47
			c0-8.705,3.324-14.454,7.744-17.481c2.51-1.696,6.195-2.801,9.371-2.801c2.51,0,5.234,0.591,7.299,1.692
			c1.404,0.741,2.064,1.258,3.691,2.656l-4.789,6.496c-1.996-1.845-4.129-2.95-5.979-2.95c-4.428,0-6.416,3.833-6.416,12.688
			c0,4.941,0.66,7.889,1.918,9.516c1.029,1.328,2.732,2.141,4.428,2.141c2.281,0,4.352-0.959,6.785-3.1l0.584-0.515l4.504,5.972
			C737.406,57.294,736.738,57.816,735.41,58.629z"/>
		<path fill="#FFCB05" d="M753.262,44.316v0.292c0,5.825,2.885,9.147,7.967,9.147c3.398,0,6.568-1.251,9.584-3.767l3.846,5.908
			c-4.352,3.538-8.926,5.234-14.244,5.234c-10.836,0-17.852-7.668-17.852-19.547c0-6.787,1.404-11.288,4.729-14.975
			c3.092-3.465,6.859-5.088,11.871-5.088c4.354,0,8.482,1.474,10.922,3.983c3.461,3.538,5.018,8.63,5.018,16.526v2.286H753.262z
			 M764.85,36.641c0-2.802-0.293-4.282-1.182-5.683c-0.961-1.47-2.357-2.207-4.352-2.207c-3.76,0-5.908,2.947-5.908,8.185v0.146
			h11.441V36.641z"/>
	</g>
	<g>
		<g>
			<path fill="#FFCB05" d="M4.074,41.036c-0.021,0.034,0,0.014,0.027-0.084l0.007-0.076L4.074,41.036z"/>
			<path fill="#FFCB05" d="M4.366,40.403c0.035-0.125,0.014-0.285-0.069-0.243c0.028,0.152-0.007,0.166,0.007,0.319
				c-0.035,0.097-0.083,0.16-0.091,0.139c-0.006,0.035-0.055,0.153-0.055,0.208c0.055-0.118,0.146-0.271,0.181-0.452
				C4.359,40.347,4.359,40.389,4.366,40.403z"/>
			<path fill="#FFCB05" d="M10.253,32.129l-0.104,0.003C10.198,32.147,10.226,32.14,10.253,32.129z"/>
			<path fill="#FFCB05" d="M14.737,27.799c-0.014,0.045,0.042,0.121,0.104,0.181C14.82,27.906,14.807,27.844,14.737,27.799z"/>
			<path fill="#FFCB05" d="M16.252,27.757c-0.042-0.003-0.07,0-0.098-0.003C16.239,27.799,16.294,27.812,16.252,27.757z"/>
			<path fill="#FFCB05" d="M10.253,32.129l0.285-0.007C10.365,31.987,10.351,32.094,10.253,32.129z"/>
			<path fill="#FFCB05" d="M4.602,38.943c0,0.042,0.007,0.077,0.014,0.112l0.007-0.091L4.602,38.943z"/>
			<path fill="#FFCB05" d="M8.94,34.538l-0.028,0.039c0.042,0.045,0.09,0.097,0.152,0.149L8.94,34.538z"/>
			<path fill="#FFCB05" d="M7.675,36.224c0.042-0.031-0.257-0.226-0.383-0.323c0.111,0.104,0.153,0.167,0.153,0.212
				C7.501,36.151,7.578,36.185,7.675,36.224z"/>
			<path fill="#FFCB05" d="M5.36,38.791l-0.007,0.056C5.353,38.832,5.353,38.805,5.36,38.791z"/>
			<path fill="#FFCB05" d="M9.976,33.429c0.069,0.045,0.125,0.073,0.167,0.09C10.086,33.488,10.038,33.453,9.976,33.429z"/>
			<path fill="#FFCB05" d="M57.918,0.282l0.007,0.028C57.939,0.299,57.939,0.289,57.918,0.282z"/>
			<polygon fill="#FFCB05" points="60.532,0.542 60.497,0.549 60.49,0.549 			"/>
			<path fill="#FFCB05" d="M18.442,27.253c-0.014-0.01-0.014-0.01-0.014-0.01C18.449,27.34,18.463,27.312,18.442,27.253z"/>
			<path fill="#FFCB05" d="M31.802,16.586c-0.646-0.65-0.34-1.15-1.119-1.835C30.913,15.067,31.288,16.225,31.802,16.586z"/>
			<path fill="#FFCB05" d="M4.637,38.902l0.021-0.091C4.637,38.846,4.637,38.874,4.637,38.902z"/>
			<path fill="#FFCB05" d="M30.684,14.751l-0.007-0.003L30.6,14.685C30.635,14.709,30.649,14.727,30.684,14.751z"/>
			<path fill="#FFCB05" d="M21.403,24.152c-0.118-0.115-0.216-0.194-0.306-0.274C21.16,23.951,21.25,24.031,21.403,24.152z"/>
			<path fill="#FFCB05" d="M18.039,25.303l0.139,0.028C18.102,25.3,18.06,25.292,18.039,25.303z"/>
			<path fill="#FFCB05" d="M21.848,22.119c0.076,0.032,0.174,0.122,0.139-0.014c-0.035-0.028-0.056-0.052-0.09-0.08
				C21.966,22.14,21.987,22.21,21.848,22.119z"/>
			<path fill="#FFCB05" d="M23.225,21.028c-0.056-0.056-0.104-0.094-0.153-0.139l-0.014,0.073L23.225,21.028z"/>
			<path fill="#FFCB05" d="M52.169,0.72c0.077,0.114,0.146,0.239,0.209,0.372C52.253,0.789,52.497,0.647,52.169,0.72z"/>
			<path fill="#FFCB05" d="M4.672,38.978c-0.028-0.021-0.035-0.048-0.035-0.076l-0.014,0.062
				C4.637,38.978,4.665,38.985,4.672,38.978z"/>
			<path fill="#FFCB05" d="M17.01,16.367l0.32-0.104C17.205,16.249,17.086,16.291,17.01,16.367z"/>
			<path fill="#FFCB05" d="M39.004,4.039l0.021-0.118C38.99,3.91,38.983,3.945,39.004,4.039z"/>
			<path fill="#FFCB05" d="M17.9,15.516c0.264,0.226,0.431,0.34,0.556,0.393c-0.035-0.066-0.069-0.121-0.132-0.215L17.9,15.516z"/>
			<path fill="#FFCB05" d="M52.378,1.092L52.378,1.092L52.378,1.092z"/>
			<path fill="#FFCB05" d="M54.088,0c-0.292-0.003,0,0.456,0.014,0.724c-0.299,0.17-0.264-0.327-0.452-0.567
				c-0.181,0.132-0.208,0.605-0.375,0.605c-0.035-0.083-0.07-0.111-0.07-0.223c-0.097,0.435-0.66,0.094-0.75,0.685
				c-0.035-0.042-0.056-0.084-0.076-0.132c0.132,0.282,0.222,0.56,0.278,0.765c-0.119,0.035-0.111,0.414-0.278,0.052
				c0.076-0.007,0.042-0.156,0.042-0.281l-0.083,0.187c-0.285-0.514,0.118-0.222,0-0.615c-0.208,0.211-0.354,0.736-0.598,0.622
				c-0.215-0.549,0.396-0.271-0.014-0.708l0.368,0.153c-0.5-0.807,0.209,0.035-0.292-0.834c-0.466-0.121-0.375,0.32-0.834,0.212
				c0.007,0.33,0.181,0.469,0.194,0.803c-0.368,0.716-0.938-1.408-1.099-0.549c0.028,0.424,0.25,1.224-0.187,0.869l-0.139-0.733
				c-0.417-0.014,0.132,1.078-0.438,0.674c-0.028-0.306,0.223-0.306,0.132-0.379c-0.458-0.528-0.048,0.452-0.243,0.5l-0.271-0.657
				c-0.382,0.174-0.661,0.768-1.063,1.015c-0.056-0.222-0.056-0.458-0.236-0.657c-0.452,0.483-1.251,0.205-2.002-0.146L45.663,2.1
				c-0.048,0.007-0.208-0.282-0.208-0.424c-0.32-0.205,0.16,0.431,0.16,0.723c-0.111,0.083-0.32-0.348-0.32-0.57
				c-0.16,0.657-0.569,1.571-1.265,0.925l-0.013-0.24c-0.431-0.208,0.257,1.588-0.299,1.001V3.369
				c-0.8-0.129-1.217,0.834-2.225-0.17c0.389,1.147-0.875-0.292-0.23,1.3c-0.715-0.647-0.729-0.974-1.501-1.324
				c-0.181-0.028,0.236,1.078,0.139,1.317l-0.382-0.852l0.16,0.98l-0.591-0.974l-0.063,0.275c0.091,0.031,0.313,0.337,0.417,0.584
				c-0.076,0.486-0.89-0.365-1.105-0.813l-0.265,0.966C37.919,4.3,37.961,4.14,37.934,3.883c0.104,1.018-0.487-0.9-0.396,0.031
				c0.132,0.188,0.223,0.532,0.299,0.716c-0.39-0.473-0.737-0.354-0.869-0.028l-0.25-0.632c-0.529,0.017-0.807,0.66-1.307,0.862
				c0.32,0.215,0.813,1.311,0.729,1.48l-0.542-0.931c0.208,0.632,0.333,0.292,0.507,1.105c-0.237-0.028-0.667-1.039-0.723-1.397
				l-0.056,0.434c-0.153-0.281-0.181-0.455-0.347-0.827c0.208,0.636-0.883-0.799-0.487,0.299l-0.167-0.282
				c-0.5,0.205-0.556,0.643-0.932,0.865c0.431,0.848,0.181,0.73,0.424,1.463C33.387,6.92,32.713,6.413,32.4,6.656
				c-0.014,0.549,0.32,0.754,0.486,1.317c-0.438-0.765-0.744-0.521-0.869-1.168C31.664,7.14,31.56,7.23,31.399,8.13
				c0.236,0.288,0.368,0.389,0.493,0.67c-0.028,0.181-0.403-0.211-0.598-0.59l-0.021-0.097c0.104,1.487-2.655-1.53-2.176,0.351
				l-0.021-0.097l0.034,1.115c-0.298-0.014-0.222-0.661-0.674-1.05c0.271,1.588-0.924,0.292-0.806,1.411
				c-1.766-2.088-1.036,0.858-2.405-0.316l0.369,0.518c0.236,0.598-0.334-0.216-0.494-0.281c0.278,0.4,0.432,0.396,0.557,0.733
				c-0.494,1.269-2.44,0.5-3.719,0.758c-0.438,0.125,1.724,2.805,0.417,1.897l-0.577-1.043c0.16,1.655-1.425,1.025-1.335,2.513
				c-0.125-0.243-0.333-0.518-0.278-0.57c-0.646-0.549-0.527,0.396-0.097,0.935c-0.153,0.021-0.41-0.469-0.681-0.691
				c-0.445-0.271,0.32,1.126-0.265,0.535c-0.104-0.093-0.132-0.243-0.152-0.313c0.167,0.389-0.473,0.271,0.215,0.945
				c-0.521-0.146-0.188,0.716-0.729,0.445c0.563,0.935-0.716-0.021,0.208,1.161c-0.987-1.199-1.203-0.57-0.883,0.111
				c-0.257-0.4-0.438-0.247-0.799-0.789c-0.146,0.177-0.111,0.539,0.431,1.098c-1.501-1.077,0.355,1.662-1.349,0.094
				c0.07,1.092,0.007,1.933-0.173,2.604c-0.98-1.078,0.361-0.581-0.709-1.696c0.021,0.876,0.654,2.009,0.021,2.159
				c-0.236-0.032-0.375-0.511-0.514-0.72c0.021,0.831-0.827,0.73-0.612,1.658c-0.09-0.091-0.153-0.233-0.194-0.352
				c-0.035,0.111-0.299,0.039,0.152,0.477l-0.055-0.198c0.758,0.535,1.098,1.644,1.432,1.984c-1.174-1.38-0.653,0.045-2.092-1.73
				c0.042,0.132,0.202,0.399,0.508,0.678c-0.153-0.011-0.341-0.153-0.619-0.56c0.014,0.511,0.57,0.866,0.348,1.102
				c-0.216-0.208-0.25-0.337-0.487-0.601c0.313,0.524,0.619,1.042,0.271,1.07c-0.125-0.128-0.306-0.268-0.257-0.323
				c-0.236,0.42,0.591,1.623-0.118,1.651c-0.814-0.942-0.41-0.139-1.203-0.824l0.07,0.435l0.438,0.25
				c-0.16,0.177,0.271,0.841-0.104,0.779l-0.208-0.421l-0.125,0.483l0.445,0.059c0.25,0.535,0.994,0.837,0.577,0.89
				c-0.035-0.114-0.153,0.164-0.688-0.128l0,0c0.167,0.299,0.348,0.604,0.049,0.577c-0.271-0.17-0.813-0.74-0.994-0.855
				c0.556,0.629-0.16,0.594,0.424,1.269c-0.125-0.164-0.522-0.497-0.612-0.549l0.459,0.504c-0.23-0.049-0.32-0.104-0.612-0.369
				c-0.285,0.195,0.995,0.685,0.362,0.671c-0.028-0.056-0.112-0.108-0.146-0.226c-0.431,0.156-0.132,0.869-0.584,0.973
				c-0.772-0.483,0.007-0.404-0.674-0.79c-0.146,0.56,0.243,1.564-0.208,1.846l0.125-0.018c0.925,0.782-0.674-0.042-0.354,0.514
				c-0.035-0.104-0.479-0.458-0.383-0.365c-0.326,0.184-0.132,0.782-0.132,1.421L8.69,30.69c-0.313,0.028-0.39,0.378-0.598,0.5
				c0.181,0.208,0.083,0.285,0.438,0.445c-0.799-0.146-0.786,0.257-0.751,0.653c0.042,0.4,0.076,0.782-0.521,0.754
				c0.035-0.063-0.09-0.264-0.125-0.212l-0.049,0.571c0.341,0.159,0.223,0.062,0.521,0.128c0.16,0.174,0.236,0.389,0.167,0.49
				c-0.09-0.323-0.508-0.32-0.723-0.334c0.104,0.042,0.194,0.143,0.292,0.191c-0.674-0.107,0.591,0.424,0.042,0.508l-0.146-0.115
				c0.014,0.167,0.146,0.392,0.028,0.486c-0.354-0.146-0.076-0.216-0.354-0.396c-0.07,0.198,0.424,0.723,0.007,0.695
				c-0.042-0.132,0.014-0.24-0.035-0.369C6.41,34.632,6.5,34.715,6.368,34.809l0.014-0.003l-0.299,0.226l0.139-0.028
				c0.674,0.695-0.077,0.566,0.257,1.147c-0.306-0.553-0.237-0.199-0.535-0.396c-0.125,0.028-0.271,0.104-0.334,0.021
				c0.174,0.292-0.278,0.159-0.027,0.563c-0.091-0.035-0.07,0.163-0.285,0.007c0,0.236,0.173,0.031,0.285,0.114
				c0.146,0.452-0.612,0.542-0.424,1.179c-0.021,0.443,0.181,0.624,0.104,1.006c-0.139,0.069-0.167-0.195-0.167-0.195
				c-0.159,0.146-0.187,0.299-0.208,0.508c-0.028-0.055-0.077-0.042-0.146-0.007c-0.034,0.146,0.125,0.174-0.007,0.334
				c-0.034-0.056-0.09-0.132-0.118-0.229c-0.007,0.202,0,0.403-0.035,0.591c-0.07,0.021-0.049-0.146-0.07-0.229
				c-0.028,0.215-0.104,0.556-0.069,0.64l0.076-0.112c-0.028,0.077-0.069,0.007-0.069-0.048c0-0.209,0.111-0.237,0.153-0.229
				l-0.027,0.132c0.236-0.035,0.18-0.5,0.271-0.758l0.139,0.188l-0.048-0.326c0.076-0.028,0.215,0,0.187,0.132
				c0.188-0.118,0-0.195,0.195-0.278c0,0,0.042,0.007,0.042,0.035l0.014-0.209c0.035,0.063,0.188,0.063,0.097,0.146
				c0.32-0.215,0.07-0.57,0.348-0.57v0.028c0.152-0.443-0.181-0.139-0.278-0.593l0.702,0.111L6.02,37.538
				c0.035-0.039,0.104-0.115,0.202-0.039c-0.083-0.247-0.132-0.035-0.243-0.212c0.361-0.063,0.194-0.622,0.681-0.414
				c-0.181-0.195-0.278,0.094-0.313-0.198c0.535,0.215,0.063-0.299,0.403-0.348c0.236,0.216-0.014,0.295,0.341,0.261
				c-0.396-0.379,0.333-0.281,0.354-0.476c-0.396-0.233,0.042-0.417,0.069-0.744c0.132,0.101,0.577-0.31,0.917-0.417l0.07,0.052
				c-0.438-0.33-0.188-0.511-0.16-0.744c0.285,0.198,0.39,0.299,0.445,0.469l0.125-0.153c-0.132-0.136-0.181-0.233-0.167-0.375
				L9.1,34.479c0.146-0.201-0.146-0.702,0.333-0.789c-0.375-0.264-1.196-0.469-1.272-0.942c0.215,0.125,0.577,0.351,0.612,0.483
				c-0.014-0.042-0.111-0.205,0.007-0.202l0.271,0.352c0.243-0.021-0.243-0.257-0.146-0.338c0.299,0.202,0.264,0.066,0.494,0.24
				c0.007,0.049-0.188,0.003-0.09,0.125c0.125-0.076,0.403-0.087,0.667,0.021c-0.181-0.108-0.41-0.271-0.389-0.383
				c0.152-0.215,0.43,0.188,0.688,0.185c-0.174-0.202,0.16-0.164-0.306-0.49c0.048-0.056,0.285,0.09,0.431,0.156
				c-0.125-0.25,0.347-0.507-0.264-0.765l-0.056,0.003c-0.014-0.014-0.007-0.018-0.014-0.028l0,0l0,0
				c-0.215-0.699,0.855-0.515,0.918-1.001l0.173,0.129c-0.042-0.352,0.237-0.536-0.028-0.97c0.049-0.063,0.453,0.115,0.647,0.306
				c-0.007-0.25-0.194-0.431,0.299-0.407c0.188,0.396,0.327,0.174,0.097,0.333c0.334-0.063,0.674,0.129,0.348-0.473
				c0.417,0.445,0.744,0.348,0.681,0.146l-0.472-0.146c0.027-0.16,0.152-0.208,0.277-0.267l0.591,0.563
				c1.167,0.295-0.702-1.783,0.917-0.948c-0.375-0.491-0.521-0.073-0.987-0.619c0.25-0.108,1.391,0.535,1.453,0.494
				c0.612,0.108-0.765-1.05-0.264-1.074c-0.278-0.181-0.953-0.709-1.008-1.102c0.257-0.104,1.237,0.691,1.327,0.969
				c-0.021,0.056-0.118,0.011-0.194-0.062c0.035,0.128,0.063,0.292,0.396,0.455l-0.229-0.236c0.34,0.139,0.549-0.111,0.896,0.306
				c-0.097-0.331-0.347-0.417-0.57-0.435c0.577,0.104,0.354-0.323,0.82-0.316c-0.173-0.09-0.493-0.323-0.458-0.358
				c0.639-0.038-0.327-0.574-0.223-0.9c0.507,0.229,0.875,0.89,0.778,0.372c0.396,0.111,0.695,0.598,0.848,0.841
				c-0.278-0.65,0.73-0.045,0.938-0.053l0.091,0.285c-0.049-0.17,0.007-0.212,0.063-0.257l-0.577-0.431
				c0.159,0.028,0.215-0.021,0.43,0.188c-0.271-0.382-0.896-0.768-1.223-1.324c0.348,0.173-0.014-0.515,0.696,0.122
				c-0.508,0.014,0.723,0.632,0.59,0.941c-0.035-0.122,0.021-0.16,0.181-0.132c0.083,0.07,0.132,0.149,0.153,0.205
				c0.876,0.372-0.653-0.855-0.361-1.081c0.348,0.41,0.8,0.667,0.758,0.546c-0.118,0.09-0.695-0.591-0.89-0.97
				c0.473,0.142-0.035-0.393,0.09-0.445l-0.25-0.045c-0.348-0.417-0.208-0.452-0.215-0.688c0.32,0.298,0.104,0.313,0.278,0.407
				c-0.549-0.813,1.008,0.435,0.737-0.195c0.354,0.195,0.744,0.747,1.008,0.865c-0.292-0.699,0.771,0.368,0.583-0.247
				c-0.598-0.504-0.479-0.351-0.827-1.029l-0.007,0.702l-0.521-1.004c-0.125,0.094,0.09,0.549-0.069,0.518
				c-0.313-0.542-0.194-0.399-0.688-0.806c0.953,0.688-0.146-0.751,0.557-0.351l1.3,1.387c0.855,0.396-0.188-1.116,0.487-1.057
				l-0.341-0.153c-0.465-0.605,0.146-0.264,0.056-0.587c0.417,0.486,0.654,0.601,0.973,0.858c-0.333-0.351,0.278-0.177-0.556-1.174
				l0.73,0.521c0.535,0.045-0.911-1.672-0.48-1.738c0.389,0.612,0.828,0.869,0.973,1.407c0.098-0.073,0.264-0.045-0.034-0.393
				c0.326,0.275-0.334-0.883,0.167-0.476c-0.153-0.257-0.591-0.796-0.459-0.841c0.104,0.097,0.223,0.253,0.223,0.253
				c-0.223-0.253-0.132-0.479-0.709-0.969c1.647,1.376,0.702-0.8,2.12,0.42c0.063-0.333,0.174-0.698,0.341-0.875
				c0.118,0.174,0.208,0.268,0.132,0.236c0.653,0.306-1.078-1.668-0.327-1.342c0.841,0.761,0.216,0.594,0.57,0.859
				c1.446,1.755,0.167-0.518,1.182,0.378l0.028,0.146c0.633,0.507-0.16-0.97,0.194-1.025c0,0,0.112,0.17,0.209,0.278
				c-0.535-1.053-0.431-1.602-0.383-2.047c0.466,0.779,0.174,0.466,0.765,1.165c0.035-0.181-0.911-1.158-0.841-1.522
				c0.369,0.344,0.786,0.581,1.383,1.359l-0.174,0.188c0.855,0.949,0.236-0.223,0.473-0.118l0.32,0.452
				c0.201-0.365-0.612-1.508-0.216-1.672l-0.278-0.32c-0.612-1.268,0.612,0.521,0.202-0.452l0.869,1.116
				c-0.07-0.365-0.341-1.415-0.264-1.79c0.473,0.952,0.507,1.567,0.709,2.186c0.125-0.08,0.354-0.361,0.028-0.983
				c0.027,0.143,0.16,0.473-0.014,0.33c-0.479-1.015-0.583-1.606-0.319-1.755c1.494,2.297,1.036,0.128,2.384,1.783
				c-0.125-1.14,1.105-0.191,1.516-0.657c-1.321-1.682,0.118-0.149-1.078-1.975c0.042-0.198,0.105-0.198,0.195-0.083l1.049,0.869
				c0.424,0.483,0.139,0.483,0.417,0.89c0.34-0.024,0.591,0.719,1.057,1.098c-0.438-0.64-0.493-1.012-0.195-0.852l-0.73-0.719
				c-0.243-1.227,1.258,1.352,1.036,0.146l0.236,0.653c-0.021-0.458,0.681-0.413-0.007-2.026c0.16,0.198,0.5,0.674,0.5,0.862
				c0.57-0.06,0.083-2.229,0.966-1.519l0.223,0.479c0.014-0.188-0.334-0.945,0.035-0.549c0.097,0.185,0.222,0.469,0.271,0.473
				c-0.042-0.185-0.215-0.928,0.049-0.734l0.181,0.563c0.765,0.327,0.007-1.644,0.229-2.183c0.709,1.328,1.286,1.54,1.571,1.651
				l0.097,0.188c0.597-0.143,0.313-1.613,0.549-2.405c1.008,1.227,1.321-0.01,2.189,0.49c-0.181-0.188-0.465-1.001-0.438-1.175
				c0.243,0.192-0.097-1.06,0.438,0.111h-0.048c0.625,1.092,0.716,0.65,0.91,0.574l-0.674-1.526c1.487,1.88,0.931-1.48,2.072,0.275
				c-0.049-0.428,0.098-0.504,0.056-0.932l0.34,0.775c0.411,0.011,0.605,0.007,0.925-0.396l0.16,0.591
				c0.236-0.09-0.653-2.336-0.452-2.485l0.542,1.081c0.396-0.232,1.188,0.483,1.182-0.706c0.056,0.153,0.174,0.466,0.125,0.545
				c0.202-0.072,1.008,0.303,0.369-1.091c0.375,0.931,0.445-0.132,0.514-0.646l0.23,0.691c-0.153-0.956-0.237-1.188-0.063-1.546
				c0.104,0.056,0.264,0.5,0.118,0.372c0.34,0.239-0.083-0.703,0.313-0.466l0.055,0.452c0.236-0.052,0.132-0.268,0.077-0.796
				c0.042-0.316,0.473-0.021,0.723,0.525c-0.104-0.362-0.16-0.876,0.035-0.772c0.09,0.205,0.097,0.358,0.097,0.435
				c0.508,0.24,0.278-0.959,0.744-0.483c0.076,0.195,0.132,0.285,0.174,0.331c-0.285,0.132-0.536,0.212-0.529,0.153
				c0.209,0.566,0.466,0.542,0.577,1.411c0.014-0.528,0.007-1.592,0.32-1.439c0.027,0.042,0.055,0.087,0.09,0.167v0.073
				c0.076,0.024,0.104-0.045,0.111-0.16c0.104,0.052,0.174,0.09,0.243,0.066c0.181,0.424,0.34,0.094,0.458,0.052
				c-0.201-0.56-0.021-0.545-0.327-0.935c0.035,0.027,0,0.076-0.063,0.135c-0.021,0.027-0.034,0.038-0.034,0.087l-0.014-0.06
				c-0.07,0.06-0.16,0.115-0.264,0.178c-0.014-0.337-0.007-0.623,0.236-0.365c-0.063-0.393-0.125-0.79-0.16-0.984
				c0.438,0.723,0.883,0.98,1.085,1.421c0.243-0.49,0.75-0.633,0.667-1.672c0.063-0.16,0.209,0.223,0.292,0.348
				c-0.028,0.121-0.097,0.139-0.083,0.292c0.118-0.337,0.563-0.378,0.41-1.018c0.348,0.167,0.042,0.636,0.362,0.372l0.014,0.212
				c0.493,0.32,0.646-0.215,0.841-0.664c0.194-0.458,0.431-0.823,0.98-0.462c-0.076-0.042-0.111-0.056-0.146-0.139
				c0.515,0.045,0.939-0.268,1.383-0.5c0.445-0.243,0.911-0.427,1.411-0.379c0.278-0.01,0.25-0.222,0.369-0.417l0.118,0.212
				l0.195-0.357c0.347-0.275,0.771,0.215,1.175-0.264l-0.083-0.073c0.174-0.045,0.542-0.223,0.528-0.132
				c0.014-0.018,0.042-0.09,0.119-0.08l0.021,0.052c-0.007-0.011,0.41-0.226,0.41-0.216c0.334-0.083-0.021,0.164,0.452-0.038
				c0.167-0.115,0.501-0.223,0.438-0.195c-0.083,0.018-0.188,0.039-0.195,0.035c-0.007-0.007,0.167-0.028,0.167-0.028
				c0.021-0.017,0.181,0.028-0.271-0.059c0,0-0.299,0-0.299,0.007l-0.111-0.039l0.264,0.014c-0.153-0.042-0.243-0.024-0.34-0.003
				c-0.035-0.021-0.076-0.045-0.139-0.06c0-0.01-0.286,0.094-0.278,0.101c-0.049-0.052,0.111-0.097-0.098-0.132
				c-0.132,0.055,0.16,0.118-0.063,0.163c-0.16-0.063-0.139-0.132-0.292-0.069c-0.035-0.039,0-0.073,0.063-0.087
				c-0.139,0.048-0.403,0.003-0.459,0.122c-0.181-0.128-0.5,0.052-0.549-0.198c-0.035,0.059-0.222,0.208-0.354,0.229
				c0.173-0.347-0.529,0-0.563-0.41c-0.104,0.344-0.654,0.153-0.932,0.41c0.014-0.039,0.028-0.108,0.063-0.09
				c-0.194-0.024-0.285-0.156-0.438-0.243c0.083,0.379-0.188,0.49-0.271,0.768c-0.341-0.375,0.007-0.5-0.174-0.869
				c0.111,0.33-0.306,0.354-0.146,0.643c-0.25-0.244-0.188-0.108-0.382-0.473c0.132,0.563-0.139,0.104-0.181,0.473
				c-0.341-0.257-0.229-0.549-0.459-0.341C53.9,0.223,54.088,0,54.088,0z M47.922,2.382c0-0.007-0.007-0.011-0.007-0.011
				c0.056-0.028,0.098-0.056,0.132-0.066C48.02,2.322,47.978,2.343,47.922,2.382z M47.387,2.53c0.077,0.011,0.16-0.003,0.25-0.038
				c0.09,0.205,0.153,0.423,0.09,0.427C47.707,2.777,47.533,2.687,47.387,2.53z M49.925,6.197c-0.042,0.122-0.105,0.024-0.16-0.086
				c0.035-0.028,0.069-0.073,0.111-0.136c-0.007-0.024-0.014-0.052-0.014-0.073C49.89,6.013,49.917,6.118,49.925,6.197z"/>
			<path fill="#FFCB05" d="M49.806,5.384c0-0.017,0-0.045,0.014-0.056c-0.034-0.042-0.062-0.076-0.09-0.104
				c0.014,0.062,0.028,0.125,0.028,0.187L49.806,5.384z"/>
			<path fill="#FFCB05" d="M10.135,32.133h0.014c0,0-0.048-0.01-0.083-0.024C10.094,32.119,10.114,32.123,10.135,32.133z"/>
			<polygon fill="#FFCB05" points="39.421,3.448 39.519,3.639 39.484,3.452 			"/>
			<path fill="#FFCB05" d="M7.049,33.686c-0.035-0.014-0.077-0.028-0.111-0.028C6.959,33.676,7,33.679,7.049,33.686z"/>
			<path fill="#FFCB05" d="M6.368,34.809l-0.195,0.104C6.277,34.878,6.333,34.843,6.368,34.809z"/>
			<path fill="#FFCB05" d="M5.826,35.664c0.042,0.042,0.076,0.066,0.118,0.09h0.007L5.826,35.664z"/>
			<path fill="#FFCB05" d="M13.882,21.236c0-0.01,0-0.031,0-0.055C13.819,20.986,13.827,21.084,13.882,21.236z"/>
			<path fill="#FFCB05" d="M12.165,26.308c-0.077-0.132-0.146-0.261-0.174-0.354C11.887,25.974,11.838,26.022,12.165,26.308z"/>
			<polygon fill="#FFCB05" points="16.976,16.378 16.982,16.392 17.01,16.367 			"/>
			<path fill="#FFCB05" d="M12.137,25.783c-0.167-0.035-0.188,0.045-0.146,0.17C12.075,25.929,12.186,25.911,12.137,25.783z"/>
			<path fill="#FFCB05" d="M4.359,39.826l-0.007,0.042c0.007,0,0.007,0.014,0.007,0.014V39.826z"/>
			<path fill="#FFCB05" d="M4.359,39.882v0.056C4.359,39.91,4.366,39.896,4.359,39.882z"/>
			<path fill="#FFCB05" d="M4.338,40.056l0.021-0.118C4.345,39.972,4.331,40.028,4.338,40.056z"/>
			<path fill="#FFCB05" d="M4.776,38.547L4.72,38.505C4.734,38.512,4.748,38.533,4.776,38.547z"/>
			<path fill="#FFCB05" d="M4.873,38.144c-0.042,0.083-0.194,0.173-0.194,0.326l0.042,0.035C4.658,38.394,4.95,38.283,4.873,38.144z
				"/>
			<path fill="#FFCB05" d="M6.583,37.155l-0.264,0.24c0.125,0,0.299,0.007,0.229,0.143C7.083,37.35,6.291,37.496,6.583,37.155z"/>
			<path fill="#FFCB05" d="M7.327,36.397c-0.049,0.173,0.174,0.094,0.229,0.139C7.521,36.384,7.508,36.345,7.327,36.397z"/>
			<path fill="#FFCB05" d="M12.005,30.655l0.459,0.375C12.492,30.881,12.283,30.885,12.005,30.655z"/>
			<polygon fill="#FFCB05" points="10.406,27.565 10.024,27.437 10.434,27.851 			"/>
			<polygon fill="#FFCB05" points="14.521,29.842 14.557,29.943 14.528,29.634 			"/>
			<path fill="#FFCB05" d="M23.517,21.869l-0.723-0.809C22.849,21.265,23.607,22.213,23.517,21.869z"/>
			<path fill="#FFCB05" d="M27.062,17.889c0.375,0.425,0.702,0.633,0.452,0.129C27.375,18.018,27.027,17.737,27.062,17.889z"/>
			<polygon fill="#FFCB05" points="41.347,11.105 41.395,11.459 41.451,11.105 			"/>
		</g>
		<g>
			<path fill="#FFCB05" d="M3.907,68.16c-0.021,0.062-0.007,0.027,0.055-0.112l0.028-0.104L3.907,68.16z"/>
			<path fill="#FFCB05" d="M4.373,67.256c0.063-0.174,0.077-0.403-0.028-0.319c0,0.201-0.035,0.229-0.056,0.423
				c-0.063,0.146-0.132,0.244-0.132,0.209c-0.014,0.056-0.09,0.216-0.118,0.307c0.104-0.181,0.229-0.396,0.306-0.654
				C4.379,67.179,4.373,67.228,4.373,67.256z"/>
			<path fill="#FFCB05" d="M12.763,55.001l-0.118,0.027C12.701,55.028,12.735,55.021,12.763,55.001z"/>
			<path fill="#FFCB05" d="M18.978,48.292c-0.021,0.063,0.027,0.146,0.09,0.202C19.067,48.404,19.054,48.334,18.978,48.292z"/>
			<path fill="#FFCB05" d="M20.833,47.855c-0.042,0.007-0.077,0.014-0.111,0.021C20.813,47.911,20.875,47.911,20.833,47.855z"/>
			<path fill="#FFCB05" d="M12.763,55.001l0.334-0.069C12.923,54.792,12.881,54.938,12.763,55.001z"/>
			<path fill="#FFCB05" d="M4.95,65.233c-0.014,0.055-0.014,0.104-0.007,0.146l0.027-0.126L4.95,65.233z"/>
			<path fill="#FFCB05" d="M10.747,58.49l-0.048,0.063c0.041,0.049,0.09,0.104,0.146,0.167L10.747,58.49z"/>
			<path fill="#FFCB05" d="M8.954,61.014c0.055-0.048-0.236-0.251-0.354-0.354c0.104,0.111,0.132,0.188,0.118,0.258
				C8.78,60.951,8.85,60.979,8.954,61.014z"/>
			<path fill="#FFCB05" d="M5.819,64.893l-0.028,0.091C5.798,64.955,5.805,64.928,5.819,64.893z"/>
			<path fill="#FFCB05" d="M12.193,56.808c0.069,0.035,0.139,0.063,0.181,0.084C12.318,56.85,12.255,56.822,12.193,56.808z"/>
			<path fill="#FFCB05" d="M82.352,8.867c0,0.01,0,0.021,0.014,0.028C82.373,8.877,82.38,8.87,82.352,8.867z"/>
			<polygon fill="#FFCB05" points="86.071,9.009 86.022,9.02 86.016,9.02 			"/>
			<path fill="#FFCB05" d="M23.621,46.604H23.6C23.614,46.722,23.635,46.68,23.621,46.604z"/>
			<path fill="#FFCB05" d="M43.063,30.277c-0.723-0.587-0.229-1.234-1.133-1.818C42.173,28.765,42.459,29.992,43.063,30.277z"/>
			<path fill="#FFCB05" d="M4.998,65.163l0.042-0.125C5.012,65.094,5.005,65.136,4.998,65.163z"/>
			<path fill="#FFCB05" d="M41.93,28.459c-0.007-0.007-0.007-0.007-0.007-0.007l-0.09-0.055
				C41.868,28.424,41.896,28.438,41.93,28.459z"/>
			<path fill="#FFCB05" d="M27.993,41.953c-0.125-0.104-0.229-0.181-0.327-0.25C27.736,41.772,27.826,41.849,27.993,41.953z"/>
			<path fill="#FFCB05" d="M23.552,44.288h0.167C23.628,44.268,23.586,44.274,23.552,44.288z"/>
			<path fill="#FFCB05" d="M28.966,39.339c0.09,0.014,0.202,0.097,0.181-0.055c-0.035-0.028-0.063-0.056-0.097-0.07
				C29.112,39.332,29.126,39.409,28.966,39.339z"/>
			<path fill="#FFCB05" d="M30.961,37.669c-0.056-0.049-0.104-0.08-0.167-0.122l-0.028,0.09L30.961,37.669z"/>
			<path fill="#FFCB05" d="M74.087,9.715c0.09,0.114,0.174,0.24,0.236,0.368C74.198,9.778,74.56,9.618,74.087,9.715z"/>
			<path fill="#FFCB05" d="M5.019,65.268c-0.021-0.027-0.028-0.063-0.021-0.104l-0.028,0.09C4.991,65.268,5.005,65.281,5.019,65.268
				z"/>
			<path fill="#FFCB05" d="M24.003,33.697l0.411-0.208C24.26,33.502,24.114,33.582,24.003,33.697z"/>
			<path fill="#FFCB05" d="M55.138,14.952l0.049-0.132C55.145,14.817,55.124,14.855,55.138,14.952z"/>
			<path fill="#FFCB05" d="M25.289,32.48c0.285,0.205,0.473,0.299,0.619,0.337c-0.035-0.069-0.063-0.128-0.125-0.222L25.289,32.48z"
				/>
			<path fill="#FFCB05" d="M74.323,10.09v-0.007V10.09z"/>
			<path fill="#FFCB05" d="M76.93,8.818c-0.424,0.014-0.083,0.47-0.098,0.74c-0.458,0.206-0.319-0.323-0.556-0.549
				c-0.278,0.153-0.389,0.65-0.619,0.664c-0.042-0.083-0.098-0.115-0.07-0.226C75.38,9.91,74.629,9.6,74.414,10.219
				c-0.042-0.045-0.07-0.09-0.091-0.128c0.139,0.271,0.229,0.556,0.271,0.761c-0.181,0.045-0.223,0.438-0.396,0.077
				c0.104-0.01,0.077-0.167,0.09-0.295l-0.139,0.201c-0.327-0.503,0.202-0.239,0.098-0.636c-0.327,0.24-0.619,0.803-0.939,0.709
				c-0.229-0.549,0.598-0.323,0.084-0.737l0.494,0.122c-0.578-0.789,0.292,0.014-0.278-0.841c-0.64-0.08-0.583,0.378-1.216,0.303
				c-0.035,0.347,0.181,0.469,0.153,0.816c-0.632,0.775-1.105-1.39-1.474-0.466c-0.027,0.438,0.167,1.248-0.396,0.928l-0.076-0.75
				c-0.591,0.034,0.014,1.116-0.73,0.754c0.014-0.32,0.361-0.344,0.25-0.414c-0.57-0.504-0.139,0.473-0.424,0.546l-0.278-0.654
				c-0.57,0.212-1.056,0.883-1.661,1.185c-0.035-0.219,0-0.473-0.23-0.653c-0.702,0.56-1.793,0.348-2.773,0.087l-0.056,0.758
				c-0.077,0.014-0.244-0.274-0.216-0.428c-0.403-0.173,0.139,0.441,0.097,0.748c-0.16,0.101-0.382-0.331-0.348-0.566
				c-0.341,0.727-1.063,1.728-1.925,1.15l0.028-0.25c-0.563-0.16,0.083,1.654-0.591,1.105l0.028-0.15
				c-1.091-0.021-1.842,1.043-3.051,0.146c0.333,1.171-1.168-0.171-0.543,1.435c-0.882-0.584-0.848-0.931-1.855-1.192
				c-0.244-0.011,0.146,1.123-0.028,1.39l-0.39-0.848l0.07,1.029l-0.646-0.952l-0.139,0.313c0.118,0.017,0.375,0.31,0.473,0.56
				c-0.181,0.539-1.161-0.24-1.377-0.692l-0.528,1.088c-0.146-0.358-0.063-0.539-0.049-0.807c-0.042,1.074-0.521-0.89-0.556,0.098
				c0.146,0.174,0.215,0.539,0.285,0.716c-0.459-0.452-0.946-0.254-1.189,0.128l-0.229-0.643c-0.723,0.122-1.21,0.876-1.926,1.181
				c0.404,0.181,0.883,1.279,0.73,1.478l-0.563-0.914c0.167,0.646,0.397,0.264,0.494,1.105c-0.32,0.014-0.73-1.001-0.744-1.383
				l-0.146,0.476c-0.174-0.278-0.174-0.462-0.333-0.837c0.167,0.653-1.063-0.716-0.716,0.417l-0.167-0.275
				c-0.716,0.327-0.855,0.817-1.411,1.14c0.438,0.844,0.125,0.768,0.32,1.529c-0.556-0.056-1.391-0.497-1.849-0.16
				c-0.111,0.608,0.299,0.769,0.424,1.359c-0.452-0.758-0.911-0.417-0.966-1.112c-0.521,0.445-0.674,0.566-1.05,1.605
				c0.258,0.271,0.431,0.358,0.536,0.643c-0.063,0.202-0.495-0.153-0.696-0.535l-0.007-0.098c-0.139,1.606-3.274-1.164-2.954,0.848
				l-0.014-0.104l-0.153,1.251c-0.396,0.052-0.181-0.695-0.709-1.036c0.083,1.734-1.279,0.508-1.321,1.752
				c-1.946-1.954-1.508,1.223-3.093,0.205l0.396,0.501c0.195,0.622-0.396-0.17-0.591-0.212c0.292,0.396,0.494,0.354,0.591,0.712
				c-0.911,1.509-3.239,1.179-4.949,1.724c-0.59,0.236,1.703,2.815,0.194,2.089l-0.549-1.071c-0.09,1.887-1.981,1.561-2.162,3.243
				c-0.111-0.247-0.327-0.518-0.236-0.591c-0.73-0.494-0.744,0.577-0.306,1.105c-0.188,0.066-0.424-0.445-0.737-0.633
				c-0.507-0.208,0.216,1.244-0.424,0.699c-0.104-0.083-0.118-0.254-0.125-0.334c0.139,0.421-0.64,0.441,0.097,1.067
				c-0.633-0.042-0.354,0.896-0.994,0.712c0.528,0.96-0.904,0.136,0.035,1.311c-1.001-1.182-1.418-0.403-1.126,0.34
				c-0.243-0.414-0.494-0.181-0.855-0.74c-0.208,0.25-0.222,0.675,0.347,1.213c-1.661-0.911,0.139,1.908-1.675,0.456
				c-0.111,1.292-0.382,2.276-0.723,3.158c-1.001-1.062,0.542-0.801-0.549-1.869c-0.139,1.033,0.431,2.271-0.362,2.62
				c-0.278,0.013-0.368-0.529-0.493-0.751c-0.118,1.028-1.133,1.098-1.071,2.168c-0.09-0.09-0.139-0.25-0.167-0.375
				c-0.07,0.139-0.369,0.111,0.097,0.529l-0.028-0.223c0.82,0.472,1.008,1.737,1.334,2.078c-1.146-1.411-0.799,0.209-2.196-1.613
				c0.028,0.153,0.167,0.438,0.486,0.709c-0.174,0.028-0.382-0.104-0.632-0.536c-0.077,0.633,0.521,0.931,0.215,1.28
				c-0.215-0.202-0.244-0.349-0.466-0.626c0.271,0.584,0.549,1.14,0.125,1.278c-0.125-0.139-0.319-0.257-0.25-0.347
				c-0.347,0.59,0.403,1.877-0.466,2.078c-0.792-0.98-0.466-0.076-1.286-0.737l-0.014,0.515l0.487,0.209
				c-0.223,0.257,0.153,0.979-0.285,0.994l-0.167-0.48l-0.243,0.647l0.521-0.042c0.188,0.611,1.015,0.813,0.514,0.98
				c-0.021-0.133-0.223,0.257-0.786,0.021l0,0c0.139,0.334,0.292,0.688-0.049,0.723c-0.285-0.152-0.82-0.736-1.008-0.841
				c0.542,0.667-0.298,0.799,0.244,1.508c-0.111-0.181-0.508-0.507-0.598-0.548l0.431,0.52c-0.264-0.007-0.354-0.048-0.653-0.318
				c-0.375,0.312,1.042,0.639,0.285,0.765c-0.007-0.07-0.098-0.119-0.125-0.243c-0.542,0.285-0.34,1.111-0.896,1.341
				c-0.813-0.431,0.097-0.508-0.625-0.841c-0.285,0.737-0.007,1.967-0.584,2.433l0.153-0.056c0.911,0.8-0.779,0.098-0.528,0.743
				c-0.021-0.124-0.466-0.485-0.369-0.388c-0.417,0.313-0.319,1.035-0.458,1.848l-0.181-0.236c-0.368,0.098-0.542,0.563-0.792,0.778
				c0.174,0.229,0.042,0.362,0.424,0.487c-0.876-0.014-0.931,0.521-0.98,1.036c-0.042,0.514-0.083,1.001-0.758,1.077
				c0.049-0.091-0.049-0.32-0.09-0.25l-0.188,0.758c0.348,0.152,0.236,0.041,0.57,0.063c0.139,0.208,0.174,0.473,0.077,0.618
				c-0.028-0.402-0.508-0.319-0.751-0.299c0.111,0.042,0.188,0.153,0.292,0.195c-0.737-0.014,0.577,0.444-0.07,0.653l-0.139-0.119
				c-0.021,0.217,0.083,0.487-0.063,0.646c-0.375-0.125-0.049-0.277-0.32-0.458c-0.118,0.278,0.333,0.896-0.118,0.932
				c-0.021-0.167,0.063-0.32,0.028-0.487c-0.515,0.021-0.424,0.118-0.584,0.278l0.014-0.014l-0.382,0.354l0.153-0.063
				c0.598,0.8-0.202,0.765,0.035,1.487c-0.208-0.688-0.215-0.229-0.508-0.438c-0.146,0.069-0.319,0.188-0.382,0.083
				c0.139,0.354-0.347,0.258-0.146,0.765c-0.098-0.042-0.111,0.223-0.313,0.049c-0.056,0.32,0.174,0.021,0.278,0.104
				c0.076,0.59-0.8,0.826-0.716,1.661c-0.098,0.618,0.056,0.82-0.104,1.349c-0.167,0.125-0.125-0.236-0.125-0.236
				c-0.208,0.223-0.278,0.438-0.348,0.723c-0.014-0.077-0.076-0.042-0.153,0.007c-0.077,0.216,0.09,0.223-0.09,0.466
				c-0.021-0.069-0.069-0.167-0.076-0.299c-0.056,0.271-0.083,0.55-0.167,0.813c-0.083,0.042-0.028-0.194-0.028-0.313
				c-0.083,0.306-0.236,0.778-0.215,0.889l0.104-0.159c-0.042,0.098-0.077,0.021-0.063-0.063c0.034-0.278,0.173-0.34,0.215-0.333
				l-0.062,0.18c0.271-0.084,0.313-0.709,0.465-1.063l0.118,0.236l0.021-0.445c0.09-0.041,0.236-0.034,0.174,0.146
				c0.236-0.188,0.035-0.25,0.278-0.403c0.035-0.007,0.035,0.008,0.035,0.028l0.062-0.271c0.021,0.077,0.188,0.056,0.07,0.174
				c0.403-0.333,0.208-0.785,0.5-0.826v0.041c0.244-0.64-0.174-0.174-0.195-0.766l0.75,0.028l-0.194-0.194
				c0.042-0.049,0.132-0.159,0.215-0.084C7,62.682,6.903,62.975,6.82,62.751c0.417-0.152,0.361-0.868,0.848-0.674
				c-0.153-0.223-0.334,0.18-0.299-0.208c0.549,0.194,0.132-0.418,0.528-0.536c0.222,0.236-0.083,0.396,0.327,0.278
				c-0.361-0.424,0.438-0.431,0.494-0.694c-0.383-0.251,0.152-0.571,0.243-1.022c0.139,0.111,0.674-0.543,1.104-0.758l0.077,0.069
				c-0.431-0.368-0.097-0.653-0.021-0.967c0.292,0.202,0.375,0.32,0.403,0.536l0.174-0.223c-0.118-0.16-0.146-0.285-0.097-0.473
				l0.333,0.306c0.222-0.306,0.007-0.911,0.57-1.119c-0.369-0.278-1.265-0.368-1.245-0.974c0.216,0.112,0.584,0.342,0.591,0.501
				c0-0.056-0.084-0.236,0.055-0.257l0.236,0.403c0.278-0.076-0.229-0.292-0.097-0.418c0.299,0.202,0.292,0.035,0.515,0.216
				c0,0.056-0.216,0.042-0.139,0.175c0.174-0.126,0.494-0.203,0.771-0.105c-0.181-0.104-0.403-0.278-0.361-0.424
				c0.201-0.319,0.452,0.146,0.744,0.083c-0.16-0.223,0.215-0.257-0.257-0.59c0.069-0.084,0.306,0.049,0.459,0.11
				c-0.097-0.305,0.5-0.765-0.153-0.952l-0.069,0.015c-0.007-0.015,0-0.028,0-0.042l0,0l0,0c-0.098-0.854,1.112-0.848,1.292-1.502
				l0.181,0.133c0.035-0.446,0.41-0.751,0.188-1.252c0.063-0.091,0.494,0.035,0.681,0.236c0.042-0.327-0.146-0.514,0.424-0.611
				c0.146,0.479,0.348,0.146,0.049,0.41c0.396-0.167,0.758,0,0.494-0.702c0.396,0.473,0.792,0.257,0.779,0.014l-0.529-0.076
				c0.063-0.202,0.223-0.299,0.383-0.403l0.583,0.577c1.342,0.091-0.431-2.106,1.328-1.439c-0.341-0.534-0.619,0.034-1.049-0.542
				c0.327-0.201,1.55,0.327,1.633,0.258c0.709-0.028-0.702-1.154-0.104-1.321c-0.292-0.159-0.987-0.66-0.98-1.153
				c0.32-0.195,1.328,0.556,1.383,0.896c-0.035,0.076-0.139,0.034-0.223-0.035c0.014,0.16,0.021,0.362,0.383,0.486l-0.216-0.243
				c0.376,0.084,0.667-0.292,1.008,0.14c-0.049-0.383-0.333-0.432-0.604-0.404c0.688-0.007,0.514-0.485,1.084-0.597
				c-0.188-0.077-0.536-0.278-0.487-0.334c0.799-0.209-0.271-0.633-0.063-1.071c0.577,0.161,0.869,0.897,0.869,0.271
				c0.459,0.035,0.723,0.57,0.855,0.827c-0.202-0.736,0.883-0.25,1.147-0.327l0.055,0.342c-0.028-0.209,0.049-0.271,0.132-0.349
				l-0.611-0.389c0.187-0.007,0.264-0.076,0.472,0.118c-0.243-0.403-0.931-0.716-1.216-1.334c0.389,0.117,0.09-0.646,0.827-0.049
				c-0.626,0.174,0.737,0.604,0.521,1.028c-0.021-0.132,0.063-0.208,0.25-0.208c0.083,0.055,0.132,0.139,0.146,0.201
				c0.994,0.229-0.626-0.904-0.223-1.251c0.348,0.41,0.848,0.618,0.827,0.479c-0.167,0.132-0.73-0.55-0.89-0.973
				c0.563,0.055,0.049-0.474,0.216-0.571l-0.299,0.008c-0.348-0.424-0.167-0.501-0.125-0.793c0.334,0.285,0.063,0.362,0.257,0.432
				c-0.5-0.862,1.168,0.284,0.966-0.438c0.403,0.152,0.765,0.729,1.064,0.807c-0.216-0.8,0.882,0.236,0.771-0.486
				c-0.625-0.452-0.514-0.3-0.82-1.043l-0.139,0.875l-0.452-1.091c-0.167,0.139,0.007,0.653-0.181,0.653
				c-0.278-0.583-0.167-0.444-0.688-0.807c1.029,0.585-0.035-0.896,0.758-0.597l1.328,1.354c0.98,0.25-0.014-1.334,0.834-1.432
				l-0.396-0.098c-0.473-0.611,0.236-0.354,0.188-0.722c0.431,0.479,0.702,0.563,1.05,0.792c-0.348-0.341,0.403-0.285-0.452-1.279
				l0.82,0.431c0.654-0.097-0.82-1.794-0.271-1.988c0.368,0.64,0.869,0.827,0.953,1.439c0.139-0.112,0.333-0.125,0.028-0.466
				c0.354,0.244-0.236-0.987,0.306-0.625c-0.139-0.265-0.598-0.799-0.41-0.897c0.104,0.083,0.222,0.25,0.222,0.25
				c-0.222-0.25-0.063-0.542-0.695-0.985c1.814,1.222,1.063-1.105,2.627-0.035c0.153-0.417,0.361-0.883,0.598-1.143
				c0.119,0.173,0.223,0.26,0.125,0.247c0.778,0.18-1.05-1.7-0.167-1.516c0.924,0.678,0.167,0.657,0.57,0.869
				c1.501,1.696,0.313-0.667,1.445,0.146l0.021,0.16c0.709,0.435-0.007-1.091,0.466-1.245c0,0,0.104,0.17,0.208,0.271
				c-0.479-1.109-0.243-1.783-0.097-2.322c0.445,0.799,0.132,0.504,0.765,1.178c0.076-0.226-0.953-1.126-0.793-1.578
				c0.403,0.309,0.897,0.473,1.522,1.234l-0.264,0.268c0.931,0.89,0.354-0.33,0.646-0.278l0.319,0.459
				c0.334-0.49-0.493-1.602,0.07-1.887l-0.306-0.299c-0.557-1.314,0.695,0.458,0.354-0.57l0.925,1.082
				c-0.028-0.407-0.181-1.558-0.014-2.016c0.432,0.987,0.369,1.692,0.501,2.36c0.188-0.122,0.549-0.518,0.229-1.151
				c0.007,0.164,0.118,0.512-0.076,0.383c-0.438-1.053-0.459-1.71-0.09-1.95c1.515,2.27,1.334-0.115,2.815,1.47
				c0.063-1.269,1.501-0.497,2.134-1.133c-1.432-1.595,0.188-0.198-1.057-1.988c0.098-0.236,0.181-0.254,0.278-0.146l1.237,0.737
				c0.473,0.458,0.09,0.514,0.375,0.917c0.473-0.104,0.667,0.674,1.224,1.001c-0.473-0.625-0.466-1.025-0.098-0.917l-0.841-0.65
				c-0.083-1.32,1.439,1.248,1.355-0.063l0.202,0.685c0.055-0.518,1.008-0.644,0.375-2.294c0.173,0.173,0.549,0.639,0.507,0.848
				c0.771-0.219,0.556-2.492,1.613-1.909l0.208,0.48c0.049-0.205-0.271-0.977,0.146-0.619c0.104,0.191,0.208,0.479,0.278,0.469
				c-0.021-0.191-0.111-0.987,0.202-0.827l0.146,0.59c0.98,0.192,0.306-1.859,0.716-2.478c0.723,1.317,1.474,1.442,1.849,1.505
				l0.09,0.194c0.848-0.295,0.723-1.859,1.189-2.784c1.167,1.157,1.835-0.247,2.94,0.125c-0.223-0.174-0.473-1.004-0.396-1.203
				c0.292,0.16,0.049-1.14,0.577,0.035l-0.069,0.014c0.667,1.057,0.875,0.566,1.161,0.455l-0.661-1.529
				c1.738,1.79,1.557-1.772,2.822-0.069c0.014-0.462,0.229-0.566,0.25-1.018l0.327,0.782c0.577-0.052,0.855-0.087,1.376-0.577
				l0.111,0.608c0.348-0.136-0.493-2.395-0.188-2.593l0.563,1.067c0.591-0.327,1.585,0.341,1.772-0.935
				c0.056,0.16,0.167,0.483,0.083,0.57c0.299-0.108,1.363,0.167,0.702-1.217c0.369,0.928,0.654-0.222,0.834-0.765l0.208,0.699
				c-0.049-0.994-0.125-1.23,0.181-1.627c0.125,0.049,0.278,0.494,0.097,0.375c0.431,0.212,0.007-0.723,0.515-0.536l0.014,0.48
				c0.34-0.094,0.229-0.309,0.236-0.858c0.111-0.344,0.675-0.094,0.917,0.455c-0.076-0.372-0.062-0.903,0.181-0.824
				c0.104,0.205,0.083,0.361,0.069,0.445c0.682,0.188,0.563-1.039,1.14-0.591c0.077,0.195,0.132,0.285,0.181,0.331
				c-0.432,0.167-0.786,0.274-0.772,0.219c0.201,0.566,0.577,0.511,0.577,1.411c0.118-0.56,0.278-1.668,0.702-1.554
				c0.035,0.045,0.063,0.09,0.104,0.164l-0.007,0.08c0.09,0.017,0.139-0.063,0.181-0.181c0.132,0.038,0.223,0.077,0.327,0.031
				c0.18,0.424,0.465,0.06,0.639,0c-0.202-0.56,0.056-0.563-0.306-0.945c0.042,0.024-0.014,0.083-0.118,0.156
				c-0.021,0.028-0.049,0.049-0.056,0.09l-0.007-0.056c-0.104,0.063-0.243,0.136-0.41,0.223c0.034-0.358,0.097-0.657,0.389-0.417
				c-0.028-0.407-0.049-0.817-0.049-1.015c0.5,0.709,1.091,0.935,1.3,1.373c0.431-0.521,1.167-0.74,1.216-1.821
				c0.119-0.177,0.258,0.209,0.362,0.334c-0.063,0.125-0.174,0.153-0.174,0.309c0.229-0.361,0.869-0.441,0.757-1.098
				c0.473,0.142-0.048,0.657,0.453,0.358l-0.014,0.219c0.653,0.282,0.952-0.299,1.307-0.775c0.348-0.49,0.744-0.883,1.46-0.563
				c-0.09-0.035-0.146-0.052-0.181-0.132c0.723-0.003,1.384-0.344,2.058-0.622c0.667-0.299,1.363-0.497,2.085-0.486
				c0.389-0.031,0.389-0.25,0.591-0.448l0.132,0.212l0.341-0.382c0.542-0.292,1.07,0.177,1.723-0.324l-0.111-0.069
				c0.257-0.056,0.813-0.261,0.786-0.16C83.951,9.548,84,9.468,84.11,9.482l0.014,0.056c0,0,0.153-0.07,0.313-0.132
				c0.153-0.056,0.306-0.115,0.306-0.115c0.5-0.094-0.049,0.17,0.66-0.059c0.264-0.115,0.757-0.25,0.66-0.216
				c-0.111,0.021-0.278,0.056-0.292,0.049l0.25-0.045c0.042-0.024,0.243,0.018-0.389-0.038c0,0-0.111,0-0.216,0
				c-0.111,0.01-0.215,0.021-0.215,0.021l-0.153-0.039l0.368,0.011c-0.208-0.039-0.341-0.024-0.486,0.007
				c-0.042-0.028-0.097-0.045-0.195-0.06c0-0.01-0.41,0.105-0.41,0.115c-0.063-0.056,0.174-0.101-0.118-0.143
				c-0.188,0.069,0.208,0.125-0.111,0.181c-0.222-0.059-0.173-0.132-0.403-0.056c-0.049-0.052,0-0.08,0.098-0.098
				c-0.216,0.053-0.584,0.028-0.675,0.15c-0.243-0.122-0.73,0.077-0.751-0.177c-0.063,0.056-0.354,0.223-0.549,0.257
				c0.299-0.372-0.758,0.031-0.751-0.393c-0.194,0.358-0.952,0.191-1.383,0.476c0.021-0.039,0.048-0.115,0.104-0.094
				c-0.286-0.014-0.396-0.146-0.592-0.223c0.056,0.383-0.347,0.515-0.507,0.803c-0.424-0.361,0.083-0.514-0.111-0.879
				c0.091,0.327-0.501,0.386-0.313,0.671c-0.313-0.229-0.25-0.101-0.472-0.459c0.09,0.574-0.216,0.118-0.334,0.5
				c-0.445-0.247-0.244-0.545-0.598-0.319C76.618,9.065,76.93,8.818,76.93,8.818z M67.824,11.901
				c-0.007-0.007-0.007-0.007-0.007-0.007c0.076-0.042,0.139-0.073,0.181-0.091C67.963,11.821,67.914,11.849,67.824,11.901z
				 M67.045,12.124c0.104,0,0.223-0.028,0.348-0.07c0.098,0.198,0.139,0.42,0.063,0.435C67.449,12.339,67.219,12.27,67.045,12.124z
				 M70.014,15.662c-0.083,0.139-0.16,0.038-0.216-0.073c0.049-0.034,0.104-0.083,0.174-0.16c0-0.021-0.007-0.048-0.007-0.073
				C69.993,15.463,70.007,15.578,70.014,15.662z"/>
			<path fill="#FFCB05" d="M69.972,14.82c0.007-0.021,0.014-0.048,0.035-0.062c-0.042-0.042-0.077-0.073-0.118-0.098
				c0.014,0.063,0.014,0.132,0.021,0.194L69.972,14.82z"/>
			<path fill="#FFCB05" d="M12.624,55.035l0.021-0.007c0,0-0.049-0.007-0.09-0.021C12.589,55.021,12.604,55.021,12.624,55.035z"/>
			<polygon fill="#FFCB05" points="55.812,14.237 55.902,14.431 55.896,14.229 			"/>
			<path fill="#FFCB05" d="M8.78,57.739c-0.035-0.014-0.076-0.021-0.118-0.007C8.683,57.739,8.731,57.739,8.78,57.739z"/>
			<path fill="#FFCB05" d="M7.807,59.38L7.57,59.547C7.682,59.477,7.751,59.422,7.807,59.38z"/>
			<path fill="#FFCB05" d="M7,60.61c0.049,0.049,0.083,0.069,0.118,0.098l0,0L7,60.61z"/>
			<path fill="#FFCB05" d="M19.27,40.347c0.007-0.021,0.014-0.042,0.014-0.069C19.249,40.056,19.234,40.174,19.27,40.347z"/>
			<path fill="#FFCB05" d="M16.231,47.063c-0.063-0.153-0.118-0.292-0.139-0.41C15.975,46.715,15.898,46.784,16.231,47.063z"/>
			<polygon fill="#FFCB05" points="23.961,33.718 23.961,33.728 24.003,33.697 			"/>
			<path fill="#FFCB05" d="M16.294,46.402c-0.188,0-0.229,0.104-0.202,0.25C16.19,46.597,16.322,46.555,16.294,46.402z"/>
			<path fill="#FFCB05" d="M4.498,66.456l-0.035,0.069c0.014,0.007,0.014,0.007,0.014,0.014L4.498,66.456z"/>
			<path fill="#FFCB05" d="M4.477,66.539l-0.021,0.077C4.477,66.588,4.484,66.554,4.477,66.539z"/>
			<path fill="#FFCB05" d="M4.421,66.783l0.035-0.167C4.442,66.672,4.415,66.734,4.421,66.783z"/>
			<path fill="#FFCB05" d="M5.228,64.663l-0.048-0.049C5.193,64.635,5.2,64.649,5.228,64.663z"/>
			<path fill="#FFCB05" d="M5.429,64.107c-0.069,0.117-0.257,0.257-0.285,0.465l0.035,0.042C5.13,64.482,5.478,64.28,5.429,64.107z"
				/>
			<path fill="#FFCB05" d="M7.515,62.474l-0.341,0.361c0.146-0.014,0.327-0.035,0.223,0.159C8.029,62.647,7.118,62.981,7.515,62.474
				z"/>
			<path fill="#FFCB05" d="M8.53,61.313c-0.098,0.25,0.167,0.098,0.222,0.146C8.752,61.264,8.745,61.215,8.53,61.313z"/>
			<path fill="#FFCB05" d="M15.154,52.68l0.453,0.375C15.668,52.846,15.425,52.916,15.154,52.68z"/>
			<polygon fill="#FFCB05" points="13.896,49.064 13.472,48.995 13.868,49.425 			"/>
			<polygon fill="#FFCB05" points="18.303,50.99 18.317,51.107 18.359,50.726 			"/>
			<path fill="#FFCB05" d="M31.17,38.609l-0.758-0.78C30.433,38.06,31.211,38.992,31.17,38.609z"/>
			<path fill="#FFCB05" d="M36.55,32.956c0.403,0.404,0.792,0.57,0.569,0.045C36.939,33.043,36.529,32.793,36.55,32.956z"/>
			<polygon fill="#FFCB05" points="57.125,22.189 57.125,22.561 57.272,22.168 			"/>
		</g>
		<g>
			<path fill="#FFCB05" d="M20.291,74.638c-0.028,0.042-0.007,0.021,0.042-0.091l0.035-0.09L20.291,74.638z"/>
			<path fill="#FFCB05" d="M20.736,73.943c0.055-0.133,0.076-0.313-0.028-0.265c0,0.16-0.042,0.181-0.056,0.349
				c-0.063,0.11-0.125,0.173-0.125,0.151c-0.014,0.042-0.091,0.167-0.112,0.229c0.091-0.125,0.216-0.291,0.292-0.493
				C20.743,73.888,20.736,73.93,20.736,73.943z"/>
			<path fill="#FFCB05" d="M28.25,64.656l-0.118,0.007C28.188,64.677,28.222,64.67,28.25,64.656z"/>
			<path fill="#FFCB05" d="M33.457,59.442c-0.028,0.056,0.027,0.132,0.083,0.188C33.533,59.554,33.52,59.483,33.457,59.442z"/>
			<path fill="#FFCB05" d="M35.111,59.247c-0.042-0.007-0.063,0-0.097,0.007C35.097,59.296,35.16,59.303,35.111,59.247z"/>
			<path fill="#FFCB05" d="M28.25,64.656l0.299-0.021C28.382,64.489,28.354,64.614,28.25,64.656z"/>
			<path fill="#FFCB05" d="M21.285,72.344c-0.014,0.042-0.014,0.084-0.014,0.118l0.034-0.104L21.285,72.344z"/>
			<path fill="#FFCB05" d="M26.492,67.374l-0.042,0.049c0.042,0.049,0.084,0.104,0.146,0.159L26.492,67.374z"/>
			<path fill="#FFCB05" d="M24.962,69.341c0.048-0.035-0.236-0.25-0.354-0.36c0.104,0.11,0.132,0.18,0.132,0.235
				C24.789,69.258,24.858,69.299,24.962,69.341z"/>
			<path fill="#FFCB05" d="M22.112,72.198l-0.028,0.069C22.091,72.247,22.098,72.219,22.112,72.198z"/>
			<path fill="#FFCB05" d="M27.792,66.13c0.063,0.035,0.118,0.077,0.16,0.09C27.903,66.179,27.84,66.151,27.792,66.13z"/>
			<path fill="#FFCB05" d="M83.374,26.547c0.007,0.014,0.007,0.021,0.007,0.021C83.388,26.561,83.395,26.547,83.374,26.547z"/>
			<polygon fill="#FFCB05" points="86.37,26.985 86.328,26.992 86.328,26.992 			"/>
			<path fill="#FFCB05" d="M37.544,58.407H37.53C37.558,58.518,37.565,58.482,37.544,58.407z"/>
			<path fill="#FFCB05" d="M52.726,44.887c-0.702-0.591-0.355-1.154-1.217-1.759C51.76,43.427,52.156,44.588,52.726,44.887z"/>
			<path fill="#FFCB05" d="M21.32,72.288l0.049-0.097C21.341,72.232,21.333,72.268,21.32,72.288z"/>
			<path fill="#FFCB05" d="M51.509,43.128c-0.007-0.007-0.007-0.007-0.007-0.007l-0.083-0.056
				C51.454,43.086,51.475,43.106,51.509,43.128z"/>
			<path fill="#FFCB05" d="M40.964,54.584c-0.118-0.112-0.222-0.181-0.327-0.251C40.708,54.396,40.804,54.465,40.964,54.584z"/>
			<path fill="#FFCB05" d="M37.217,56.314l0.153,0.007C37.287,56.293,37.245,56.3,37.217,56.314z"/>
			<path fill="#FFCB05" d="M41.541,52.317c0.098,0.021,0.202,0.098,0.16-0.042c-0.035-0.028-0.063-0.049-0.097-0.069
				C41.673,52.317,41.694,52.387,41.541,52.317z"/>
			<path fill="#FFCB05" d="M43.098,50.914c-0.063-0.049-0.111-0.084-0.167-0.126l-0.014,0.084L43.098,50.914z"/>
			<path fill="#FFCB05" d="M76.618,26.808c0.076,0.118,0.139,0.25,0.208,0.383C76.708,26.884,77.007,26.749,76.618,26.808z"/>
			<path fill="#FFCB05" d="M21.348,72.379c-0.028-0.028-0.028-0.056-0.028-0.091l-0.014,0.069
				C21.32,72.379,21.333,72.393,21.348,72.379z"/>
			<path fill="#FFCB05" d="M36.432,46.806l0.347-0.153C36.641,46.652,36.516,46.715,36.432,46.806z"/>
			<path fill="#FFCB05" d="M61.171,30.93l0.028-0.125C61.158,30.798,61.144,30.833,61.171,30.93z"/>
			<path fill="#FFCB05" d="M37.412,45.783c0.278,0.202,0.459,0.3,0.598,0.349c-0.048-0.07-0.076-0.126-0.139-0.217L37.412,45.783z"
				/>
			<path fill="#FFCB05" d="M76.826,27.194V27.19V27.194z"/>
			<path fill="#FFCB05" d="M78.939,26.109c-0.355-0.01-0.063,0.459-0.07,0.73c-0.369,0.173-0.264-0.334-0.466-0.577
				c-0.223,0.132-0.306,0.608-0.5,0.608c-0.028-0.077-0.07-0.108-0.056-0.219c-0.16,0.442-0.786,0.087-0.945,0.675
				c-0.035-0.045-0.063-0.094-0.077-0.132c0.125,0.278,0.209,0.563,0.25,0.771c-0.146,0.031-0.173,0.417-0.333,0.042
				c0.097,0,0.063-0.153,0.069-0.278l-0.104,0.188c-0.285-0.528,0.16-0.219,0.049-0.618c-0.258,0.201-0.48,0.74-0.744,0.636
				c-0.202-0.549,0.479-0.295,0.048-0.73l0.41,0.157c-0.507-0.824,0.237,0.038-0.264-0.845c-0.535-0.121-0.465,0.341-0.987,0.233
				c-0.014,0.34,0.174,0.469,0.16,0.81c-0.486,0.737-0.966-1.415-1.237-0.535c-0.007,0.435,0.195,1.234-0.285,0.886l-0.097-0.74
				c-0.494,0,0.062,1.088-0.571,0.691c-0.007-0.306,0.278-0.313,0.181-0.386c-0.494-0.535-0.083,0.459-0.32,0.504l-0.263-0.657
				c-0.473,0.17-0.834,0.785-1.314,1.074c-0.049-0.223-0.028-0.466-0.229-0.66c-0.549,0.521-1.46,0.271-2.301-0.049v0.73
				c-0.062,0.007-0.222-0.271-0.208-0.424c-0.362-0.191,0.146,0.431,0.125,0.737c-0.125,0.083-0.334-0.348-0.327-0.574
				c-0.236,0.688-0.771,1.603-1.529,1.015l0.007-0.247c-0.487-0.177,0.201,1.62-0.403,1.064l0.007-0.15
				c-0.904-0.059-1.439,0.953-2.552,0c0.39,1.147-0.994-0.232-0.333,1.353c-0.786-0.619-0.8-0.949-1.676-1.255
				c-0.194-0.014,0.223,1.095,0.111,1.355l-0.403-0.841l0.153,1.001l-0.64-0.945l-0.077,0.299c0.098,0.014,0.341,0.309,0.445,0.556
				c-0.098,0.518-1.001-0.275-1.23-0.713l-0.327,1.029c-0.16-0.358-0.111-0.528-0.132-0.785c0.077,1.035-0.528-0.883-0.459,0.073
				c0.146,0.174,0.237,0.525,0.32,0.702c-0.438-0.448-0.827-0.288-1.001,0.063l-0.264-0.622c-0.605,0.066-0.946,0.765-1.529,1.015
				c0.361,0.194,0.89,1.265,0.785,1.449l-0.584-0.903c0.216,0.625,0.369,0.268,0.536,1.084c-0.271-0.01-0.737-1.004-0.779-1.366
				l-0.077,0.444c-0.173-0.271-0.194-0.451-0.375-0.816c0.215,0.643-0.98-0.716-0.556,0.386l-0.174-0.278
				c-0.57,0.288-0.64,0.757-1.07,1.046c0.473,0.824,0.188,0.74,0.444,1.481c-0.472-0.081-1.23-0.521-1.592-0.233
				c-0.027,0.566,0.348,0.748,0.521,1.304c-0.479-0.741-0.834-0.441-0.959-1.102c-0.403,0.389-0.528,0.494-0.736,1.449
				c0.264,0.268,0.424,0.362,0.549,0.64c-0.035,0.184-0.452-0.174-0.667-0.545l-0.021-0.094c0.063,1.488-2.948-1.234-2.433,0.671
				l-0.028-0.097l0.028,1.174c-0.327,0.035-0.243-0.663-0.737-1.007c0.285,1.642-1.036,0.435-0.924,1.593
				c-1.933-1.945-1.175,1.042-2.683-0.007l0.41,0.494c0.25,0.591-0.375-0.188-0.557-0.236c0.313,0.389,0.48,0.354,0.612,0.695
				c-0.604,1.355-2.669,0.938-4.087,1.363c-0.48,0.188,1.863,2.718,0.438,1.938l-0.611-1.015c0.139,1.718-1.585,1.279-1.537,2.815
				c-0.139-0.243-0.361-0.5-0.292-0.563c-0.703-0.501-0.598,0.466-0.132,0.987c-0.16,0.048-0.438-0.438-0.737-0.634
				c-0.473-0.222,0.348,1.161-0.285,0.62c-0.097-0.084-0.132-0.244-0.153-0.313c0.181,0.39-0.5,0.368,0.229,0.987
				c-0.563-0.084-0.202,0.806-0.779,0.599c0.591,0.91-0.778,0.068,0.202,1.208c-1.043-1.153-1.293-0.451-0.959,0.229
				c-0.264-0.39-0.465-0.201-0.848-0.736c-0.16,0.209-0.132,0.59,0.445,1.119c-1.599-0.952,0.34,1.737-1.46,0.271
				c0.035,1.147-0.069,2.037-0.306,2.768c-1.029-1.036,0.424-0.647-0.695-1.711c-0.007,0.918,0.598,2.037-0.048,2.302
				c-0.25,0-0.389-0.501-0.528-0.716c0.014,0.917-0.89,0.903-0.688,1.883c-0.098-0.083-0.16-0.236-0.201-0.354
				c-0.042,0.125-0.313,0.069,0.152,0.494l-0.056-0.202c0.786,0.487,1.112,1.647,1.446,1.981c-1.189-1.362-0.695,0.125-2.155-1.634
				c0.035,0.14,0.194,0.41,0.514,0.674c-0.16,0.008-0.368-0.124-0.64-0.534c-0.007,0.549,0.57,0.883,0.327,1.153
				c-0.223-0.201-0.258-0.333-0.494-0.598c0.313,0.535,0.619,1.063,0.244,1.147c-0.118-0.14-0.32-0.265-0.257-0.334
				c-0.264,0.486,0.549,1.702-0.236,1.793c-0.806-0.945-0.424-0.118-1.237-0.778l0.042,0.452l0.458,0.235
				c-0.181,0.21,0.236,0.891-0.167,0.849l-0.194-0.438l-0.174,0.535l0.479,0.027c0.223,0.55,1.008,0.82,0.549,0.911
				c-0.028-0.125-0.188,0.194-0.73-0.083l0,0c0.153,0.313,0.319,0.632,0,0.625c-0.278-0.167-0.813-0.736-1.001-0.848
				c0.542,0.625-0.208,0.667,0.361,1.355c-0.125-0.181-0.514-0.501-0.604-0.55l0.445,0.508c-0.236-0.035-0.327-0.076-0.619-0.354
				c-0.32,0.243,1.001,0.675,0.341,0.709c-0.021-0.063-0.104-0.104-0.139-0.223c-0.466,0.201-0.195,0.966-0.674,1.119
				c-0.786-0.472,0.028-0.444-0.654-0.813c-0.194,0.62,0.146,1.71-0.354,2.058l0.139-0.027c0.897,0.799-0.716-0.007-0.438,0.584
				c-0.028-0.118-0.459-0.479-0.369-0.383c-0.369,0.223-0.223,0.862-0.292,1.564l-0.181-0.229c-0.333,0.042-0.459,0.424-0.695,0.57
				c0.167,0.216,0.056,0.313,0.417,0.466c-0.827-0.125-0.854,0.319-0.89,0.751c-0.014,0.43-0.042,0.84-0.674,0.82
				c0.048-0.07-0.056-0.293-0.091-0.23c0,0-0.035,0.153-0.076,0.307c-0.028,0.16-0.056,0.319-0.056,0.319
				c0.326,0.181,0.223,0.063,0.521,0.132c0.146,0.195,0.202,0.432,0.118,0.55c-0.055-0.361-0.486-0.341-0.708-0.354
				c0.104,0.048,0.181,0.152,0.285,0.208c-0.681-0.104,0.563,0.466-0.007,0.57l-0.139-0.126c-0.007,0.188,0.104,0.445-0.021,0.563
				c-0.355-0.167-0.063-0.25-0.327-0.444c-0.091,0.223,0.354,0.813-0.07,0.785c-0.028-0.146,0.042-0.271,0.007-0.417
				c-0.479-0.049-0.396,0.042-0.542,0.152l0.021-0.006l-0.354,0.25l0.146-0.027c0.604,0.778-0.153,0.625,0.097,1.278
				c-0.223-0.619-0.215-0.216-0.494-0.445c-0.132,0.035-0.285,0.119-0.354,0.021c0.139,0.319-0.313,0.174-0.104,0.633
				c-0.097-0.049-0.104,0.173-0.299,0c-0.035,0.271,0.174,0.041,0.278,0.132c0.083,0.515-0.716,0.598-0.619,1.313
				c-0.097,0.508,0.063,0.709-0.097,1.126c-0.16,0.07-0.125-0.229-0.125-0.229c-0.194,0.16-0.264,0.334-0.32,0.556
				c-0.014-0.069-0.076-0.041-0.153-0.014c-0.077,0.167,0.091,0.202-0.083,0.369c-0.021-0.063-0.063-0.153-0.076-0.258
				c-0.042,0.223-0.077,0.452-0.16,0.654c-0.069,0.021-0.014-0.16-0.021-0.258c-0.076,0.243-0.229,0.604-0.208,0.709l0.104-0.125
				c-0.042,0.084-0.076,0.007-0.063-0.063c0.042-0.216,0.167-0.25,0.209-0.243l-0.063,0.152c0.25-0.034,0.299-0.556,0.445-0.834
				l0.111,0.223l0.021-0.369c0.076-0.027,0.222,0.007,0.167,0.153c0.222-0.118,0.035-0.215,0.264-0.292
				c0.028-0.007,0.035,0.007,0.035,0.028l0.056-0.222c0.021,0.068,0.181,0.068,0.069,0.166c0.383-0.223,0.195-0.633,0.48-0.625
				v0.034c0.222-0.493-0.167-0.167-0.194-0.674l0.708,0.132l-0.202-0.195c0.042-0.042,0.125-0.117,0.208-0.042
				c-0.042-0.277-0.125-0.034-0.208-0.236c0.383-0.068,0.299-0.701,0.765-0.465c-0.152-0.216-0.306,0.111-0.285-0.229
				c0.521,0.257,0.104-0.326,0.465-0.375c0.222,0.229-0.062,0.326,0.327,0.285c-0.362-0.418,0.382-0.313,0.438-0.536
				c-0.375-0.264,0.111-0.472,0.188-0.841c0.118,0.111,0.619-0.368,0.987-0.508l0.069,0.063c-0.417-0.376-0.139-0.585-0.098-0.849
				c0.285,0.201,0.382,0.326,0.424,0.521l0.139-0.181c-0.125-0.153-0.16-0.271-0.125-0.424l0.327,0.305
				c0.194-0.242-0.028-0.771,0.493-0.882c-0.361-0.292-1.216-0.486-1.216-1.008c0.208,0.132,0.57,0.375,0.584,0.521
				c-0.007-0.049-0.09-0.223,0.042-0.216l0.236,0.368c0.264-0.027-0.222-0.271-0.104-0.361c0.292,0.216,0.278,0.069,0.493,0.258
				c0.007,0.048-0.202,0-0.125,0.125c0.16-0.084,0.459-0.098,0.737,0.021c-0.181-0.118-0.403-0.299-0.361-0.417
				c0.174-0.243,0.424,0.188,0.702,0.174c-0.153-0.209,0.195-0.188-0.264-0.529c0.063-0.069,0.292,0.077,0.438,0.146
				c-0.098-0.264,0.438-0.583-0.188-0.834l-0.056,0.007c-0.007-0.014,0-0.027-0.007-0.034l0,0l0,0
				c-0.153-0.771,0.966-0.619,1.091-1.161l0.174,0.132c0-0.382,0.327-0.604,0.083-1.078c0.056-0.068,0.466,0.091,0.653,0.293
				c0.014-0.285-0.174-0.466,0.348-0.487c0.167,0.432,0.341,0.16,0.076,0.369c0.355-0.104,0.695,0.09,0.41-0.57
				c0.396,0.466,0.758,0.327,0.702,0.097l-0.48-0.117c0.035-0.181,0.174-0.25,0.307-0.327l0.59,0.584
				c1.216,0.208-0.611-1.939,1.05-1.175c-0.361-0.507-0.549-0.028-1.001-0.591c0.264-0.146,1.446,0.459,1.516,0.403
				c0.667,0.056-0.73-1.084-0.188-1.154c-0.278-0.173-0.959-0.688-0.987-1.119c0.285-0.132,1.286,0.646,1.355,0.938
				c-0.028,0.069-0.125,0.021-0.215-0.049c0.028,0.132,0.049,0.313,0.396,0.467l-0.222-0.237c0.354,0.111,0.611-0.173,0.952,0.237
				c-0.083-0.349-0.341-0.418-0.591-0.418c0.633,0.063,0.424-0.383,0.938-0.425c-0.18-0.083-0.521-0.305-0.472-0.339
				c0.702-0.112-0.313-0.592-0.16-0.96c0.535,0.188,0.875,0.876,0.806,0.319c0.438,0.076,0.73,0.584,0.876,0.827
				c-0.257-0.674,0.786-0.146,1.022-0.187l0.076,0.312c-0.042-0.18,0.021-0.236,0.09-0.298l-0.597-0.397
				c0.167,0.008,0.229-0.049,0.444,0.146c-0.264-0.383-0.924-0.729-1.244-1.307c0.369,0.146,0.014-0.563,0.744,0.042
				c-0.55,0.09,0.744,0.604,0.59,0.966c-0.035-0.126,0.035-0.18,0.202-0.167c0.091,0.063,0.139,0.146,0.153,0.195
				c0.938,0.299-0.654-0.849-0.327-1.141c0.362,0.403,0.827,0.633,0.792,0.501c-0.132,0.111-0.716-0.557-0.917-0.96
				c0.515,0.098-0.007-0.424,0.125-0.493l-0.264-0.021c-0.354-0.416-0.208-0.465-0.202-0.729c0.326,0.285,0.097,0.334,0.277,0.417
				c-0.555-0.827,1.078,0.341,0.814-0.326c0.368,0.16,0.772,0.716,1.042,0.813c-0.285-0.743,0.821,0.278,0.633-0.382
				c-0.619-0.459-0.501-0.313-0.855-1.015l-0.021,0.785l-0.535-1.035c-0.132,0.125,0.083,0.604-0.084,0.584
				c-0.312-0.55-0.201-0.41-0.716-0.786c1.001,0.618-0.146-0.813,0.612-0.472l1.349,1.326c0.924,0.327-0.132-1.167,0.619-1.188
				l-0.368-0.124c-0.494-0.592,0.174-0.299,0.083-0.641c0.444,0.48,0.695,0.571,1.036,0.813c-0.341-0.34,0.333-0.229-0.549-1.195
				l0.786,0.459c0.577-0.028-0.932-1.682-0.466-1.814c0.41,0.604,0.882,0.827,1.029,1.383c0.104-0.09,0.285-0.09-0.035-0.424
				c0.355,0.251-0.327-0.903,0.202-0.535c-0.153-0.257-0.626-0.778-0.466-0.848c0.104,0.09,0.229,0.243,0.229,0.243
				c-0.229-0.243-0.132-0.494-0.744-0.938c1.765,1.237,0.792-0.96,2.307,0.125c0.077-0.375,0.195-0.792,0.375-1.015
				c0.118,0.167,0.223,0.25,0.132,0.229c0.715,0.222-1.14-1.627-0.341-1.404c0.911,0.688,0.236,0.618,0.619,0.834
				c1.536,1.654,0.201-0.569,1.306,0.243l0.035,0.153c0.682,0.451-0.139-0.994,0.257-1.099c0,0,0.111,0.167,0.223,0.265
				c-0.563-1.05-0.438-1.647-0.369-2.12c0.487,0.758,0.181,0.465,0.821,1.126c0.034-0.202-0.98-1.098-0.897-1.495
				c0.396,0.313,0.855,0.501,1.501,1.23l-0.202,0.229c0.932,0.883,0.278-0.271,0.535-0.201l0.341,0.444
				c0.236-0.424-0.646-1.522-0.195-1.752l-0.305-0.291c-0.661-1.259,0.667,0.466,0.229-0.515l0.945,1.049
				c-0.077-0.375-0.369-1.46-0.278-1.876c0.5,0.945,0.549,1.598,0.75,2.231c0.146-0.104,0.403-0.459,0.042-1.063
				c0.028,0.153,0.181,0.479-0.014,0.354c-0.521-1.009-0.633-1.627-0.341-1.829c1.62,2.211,1.126-0.049,2.628,1.53
				c-0.104-1.168,1.244-0.355,1.717-0.897c-1.439-1.585,0.139-0.166-1.168-1.912c0.056-0.222,0.125-0.229,0.223-0.117l1.168,0.765
				c0.458,0.444,0.146,0.486,0.444,0.883c0.383-0.084,0.647,0.66,1.168,0.994c-0.479-0.612-0.535-0.987-0.202-0.869l-0.806-0.646
				c-0.244-1.251,1.391,1.237,1.147,0l0.25,0.66c-0.007-0.487,0.771-0.563,0.021-2.154c0.18,0.181,0.549,0.639,0.542,0.827
				c0.619-0.168,0.139-2.336,1.119-1.703l0.244,0.466c0.021-0.195-0.348-0.939,0.049-0.57c0.111,0.181,0.243,0.465,0.306,0.458
				c-0.049-0.187-0.229-0.938,0.063-0.764l0.195,0.564c0.862,0.249,0.042-1.711,0.306-2.288c0.771,1.286,1.418,1.438,1.738,1.515
				l0.104,0.188c0.668-0.236,0.369-1.737,0.647-2.606c1.112,1.147,1.515-0.118,2.482,0.306c-0.209-0.181-0.501-0.987-0.459-1.17
				c0.257,0.176-0.083-1.084,0.486,0.071l-0.056,0.007c0.681,1.057,0.786,0.598,1.015,0.501l-0.716-1.507
				c1.62,1.806,1.091-1.64,2.322,0.063c-0.042-0.441,0.125-0.549,0.097-0.973l0.348,0.771c0.473-0.014,0.695-0.024,1.092-0.462
				l0.146,0.591c0.278-0.105-0.64-2.336-0.403-2.506l0.57,1.067c0.465-0.264,1.328,0.417,1.376-0.806
				c0.056,0.16,0.167,0.473,0.119,0.553c0.229-0.09,1.112,0.222,0.459-1.154c0.382,0.928,0.507-0.191,0.625-0.702l0.223,0.685
				c-0.118-0.959-0.208-1.192,0.021-1.561c0.104,0.056,0.271,0.497,0.104,0.375c0.375,0.233-0.042-0.706,0.39-0.487l0.042,0.462
				c0.278-0.066,0.167-0.278,0.132-0.816c0.07-0.327,0.549-0.042,0.792,0.504c-0.09-0.362-0.118-0.886,0.09-0.782
				c0.098,0.201,0.091,0.358,0.084,0.435c0.57,0.219,0.389-0.994,0.89-0.525c0.069,0.194,0.132,0.281,0.173,0.333
				c-0.34,0.143-0.619,0.233-0.611,0.177c0.201,0.563,0.5,0.528,0.563,1.411c0.056-0.539,0.111-1.623,0.458-1.491
				c0.035,0.045,0.063,0.09,0.098,0.171l-0.007,0.072c0.077,0.024,0.118-0.051,0.139-0.17c0.111,0.045,0.188,0.083,0.264,0.056
				c0.174,0.42,0.383,0.069,0.528,0.035c-0.202-0.563,0.007-0.542-0.306-0.945c0.028,0.035-0.007,0.083-0.09,0.142
				c-0.021,0.024-0.042,0.042-0.042,0.08l-0.007-0.056c-0.083,0.056-0.195,0.129-0.327,0.198c0.007-0.344,0.042-0.646,0.299-0.386
				c-0.049-0.389-0.09-0.799-0.098-0.983c0.453,0.723,0.946,0.983,1.14,1.428c0.313-0.486,0.904-0.646,0.89-1.7
				c0.09-0.163,0.222,0.223,0.313,0.348c-0.042,0.122-0.132,0.139-0.125,0.292c0.167-0.341,0.681-0.389,0.563-1.039
				c0.382,0.16-0.014,0.643,0.382,0.372l-0.007,0.215c0.542,0.306,0.757-0.24,1.029-0.678c0.265-0.459,0.577-0.813,1.175-0.448
				c-0.084-0.039-0.125-0.056-0.153-0.143c0.59,0.056,1.105-0.258,1.647-0.494c0.536-0.222,1.098-0.379,1.675-0.306
				c0.32-0.014,0.32-0.222,0.48-0.417l0.104,0.219l0.271-0.361c0.444-0.237,0.862,0.278,1.397-0.171L84,27.458
				c0.208-0.035,0.654-0.198,0.633-0.101c0.021-0.024,0.056-0.091,0.146-0.07l0.014,0.045c0,0,0.125-0.045,0.25-0.09
				c0.132-0.042,0.257-0.083,0.257-0.083c0.404-0.052-0.049,0.164,0.528-0.011c0.216-0.09,0.626-0.181,0.535-0.156
				c-0.09,0.01-0.223,0.031-0.229,0.021l0.195-0.021c0.035-0.024,0.195,0.038-0.306-0.073c0-0.007-0.348-0.018-0.348-0.018
				l-0.118-0.045l0.299,0.035c-0.173-0.052-0.278-0.042-0.396-0.027c-0.028-0.024-0.083-0.049-0.153-0.07
				c-0.007-0.01-0.34,0.07-0.333,0.077c-0.056-0.063,0.145-0.083-0.098-0.146c-0.16,0.045,0.167,0.135-0.097,0.16
				c-0.174-0.077-0.139-0.146-0.327-0.086c-0.035-0.049,0.007-0.073,0.083-0.083c-0.167,0.038-0.473-0.021-0.542,0.093
				c-0.201-0.139-0.591,0.021-0.612-0.236c-0.056,0.059-0.285,0.198-0.452,0.208c0.25-0.341-0.612-0.038-0.605-0.448
				c-0.16,0.351-0.778,0.135-1.133,0.382c0.021-0.035,0.048-0.108,0.09-0.091c-0.229-0.031-0.327-0.167-0.486-0.26
				c0.048,0.386-0.278,0.486-0.403,0.761c-0.354-0.396,0.056-0.501-0.104-0.883c0.076,0.337-0.403,0.34-0.25,0.635
				c-0.264-0.253-0.209-0.114-0.396-0.489c0.09,0.573-0.174,0.107-0.257,0.479c-0.368-0.261-0.208-0.556-0.493-0.352
				C78.689,26.332,78.939,26.109,78.939,26.109z M71.543,28.591l-0.007-0.007c0.063-0.035,0.112-0.063,0.146-0.077
				C71.654,28.525,71.613,28.549,71.543,28.591z M70.917,28.779c0.084,0.003,0.181-0.024,0.278-0.052
				c0.097,0.198,0.146,0.42,0.077,0.431C71.258,29.005,71.07,28.928,70.917,28.779z M73.573,32.397
				c-0.063,0.125-0.132,0.028-0.181-0.087c0.035-0.028,0.076-0.073,0.125-0.146c0-0.024-0.007-0.049-0.007-0.077
				C73.538,32.199,73.559,32.31,73.573,32.397z"/>
			<path fill="#FFCB05" d="M73.482,31.569c0.007-0.017,0.007-0.042,0.021-0.055c-0.035-0.045-0.063-0.08-0.098-0.108
				c0.014,0.063,0.021,0.132,0.028,0.188L73.482,31.569z"/>
			<path fill="#FFCB05" d="M28.118,64.67l0.014-0.007c-0.021,0-0.049-0.014-0.076-0.021C28.083,64.649,28.097,64.663,28.118,64.67z"
				/>
			<polygon fill="#FFCB05" points="61.666,30.26 61.763,30.45 61.735,30.26 			"/>
			<path fill="#FFCB05" d="M24.622,66.471c-0.035-0.015-0.069-0.028-0.111-0.021C24.532,66.456,24.58,66.464,24.622,66.471z"/>
			<path fill="#FFCB05" d="M23.808,67.763L23.6,67.875C23.704,67.847,23.767,67.798,23.808,67.763z"/>
			<path fill="#FFCB05" d="M23.113,68.716c0.042,0.042,0.076,0.069,0.111,0.097l0,0L23.113,68.716z"/>
			<path fill="#FFCB05" d="M32.922,52.394c0-0.014,0.007-0.034,0-0.063C32.866,52.13,32.866,52.233,32.922,52.394z"/>
			<path fill="#FFCB05" d="M30.794,58.046c-0.069-0.132-0.139-0.265-0.16-0.369C30.523,57.711,30.468,57.768,30.794,58.046z"/>
			<polygon fill="#FFCB05" points="36.397,46.819 36.404,46.833 36.432,46.806 			"/>
			<path fill="#FFCB05" d="M30.809,57.481c-0.188-0.026-0.208,0.063-0.174,0.195C30.718,57.649,30.836,57.621,30.809,57.481z"/>
			<path fill="#FFCB05" d="M20.847,73.296l-0.021,0.056c0,0,0.007,0.007,0.007,0.014L20.847,73.296z"/>
			<path fill="#FFCB05" d="M20.833,73.365l-0.014,0.063C20.826,73.4,20.84,73.38,20.833,73.365z"/>
			<path fill="#FFCB05" d="M20.778,73.561l0.042-0.132C20.798,73.471,20.771,73.52,20.778,73.561z"/>
			<path fill="#FFCB05" d="M21.542,71.906l-0.042-0.042C21.508,71.871,21.522,71.893,21.542,71.906z"/>
			<path fill="#FFCB05" d="M21.737,71.469c-0.069,0.09-0.25,0.181-0.271,0.347l0.035,0.049
				C21.445,71.739,21.779,71.621,21.737,71.469z"/>
			<path fill="#FFCB05" d="M23.67,70.397l-0.299,0.265c0.125,0,0.299,0.007,0.208,0.159C24.156,70.613,23.315,70.772,23.67,70.397z"
				/>
			<path fill="#FFCB05" d="M24.573,69.535c-0.083,0.195,0.16,0.104,0.215,0.153C24.775,69.521,24.768,69.48,24.573,69.535z"/>
			<path fill="#FFCB05" d="M30.294,62.904l0.452,0.382C30.788,63.112,30.565,63.141,30.294,62.904z"/>
			<polygon fill="#FFCB05" points="28.841,59.581 28.445,59.47 28.848,59.888 			"/>
			<polygon fill="#FFCB05" points="33.033,61.729 33.054,61.841 33.054,61.5 			"/>
			<path fill="#FFCB05" d="M43.397,51.796l-0.771-0.771C42.681,51.239,43.488,52.145,43.397,51.796z"/>
			<path fill="#FFCB05" d="M47.422,46.986c0.41,0.396,0.778,0.569,0.507,0.069C47.776,47.083,47.387,46.833,47.422,46.986z"/>
			<polygon fill="#FFCB05" points="63.584,38.003 63.625,38.359 63.702,37.993 			"/>
		</g>
		<g>
			<path fill="#FFCB05" d="M37.336,79.983c-0.014,0.035,0,0.015,0.048-0.063l0.021-0.069L37.336,79.983z"/>
			<path fill="#FFCB05" d="M37.725,79.476c0.048-0.111,0.055-0.264-0.035-0.243c0.007,0.146-0.028,0.153-0.042,0.292
				c-0.048,0.083-0.097,0.132-0.104,0.111c-0.014,0.035-0.077,0.126-0.098,0.181c0.083-0.097,0.188-0.216,0.25-0.375
				C37.732,79.42,37.725,79.455,37.725,79.476z"/>
			<path fill="#FFCB05" d="M44.335,72.865l-0.097-0.007C44.28,72.879,44.314,72.879,44.335,72.865z"/>
			<path fill="#FFCB05" d="M48.84,69.258c-0.014,0.041,0.042,0.118,0.09,0.181C48.924,69.369,48.91,69.306,48.84,69.258z"/>
			<path fill="#FFCB05" d="M50.293,69.334c-0.035-0.007-0.063,0-0.091-0.007C50.286,69.376,50.334,69.396,50.293,69.334z"/>
			<path fill="#FFCB05" d="M44.335,72.865l0.271,0.035C44.454,72.748,44.433,72.845,44.335,72.865z"/>
			<path fill="#FFCB05" d="M38.184,78.204c-0.007,0.034-0.007,0.063-0.007,0.098l0.021-0.084L38.184,78.204z"/>
			<path fill="#FFCB05" d="M42.876,74.944l-0.035,0.027c0.035,0.049,0.083,0.098,0.139,0.167L42.876,74.944z"/>
			<path fill="#FFCB05" d="M41.479,76.299c0.041-0.021-0.223-0.256-0.334-0.367c0.098,0.111,0.125,0.173,0.118,0.222
				C41.319,76.195,41.388,76.244,41.479,76.299z"/>
			<path fill="#FFCB05" d="M38.935,78.225L38.92,78.28C38.928,78.267,38.935,78.245,38.935,78.225z"/>
			<path fill="#FFCB05" d="M43.995,74.075c0.062,0.049,0.118,0.09,0.159,0.11C44.099,74.145,44.043,74.109,43.995,74.075z"/>
			<path fill="#FFCB05" d="M87.913,43.017l0.007,0.028C87.927,43.031,87.934,43.017,87.913,43.017z"/>
			<polygon fill="#FFCB05" points="90.311,43.253 90.276,43.253 90.276,43.267 			"/>
			<path fill="#FFCB05" d="M52.42,69.015l-0.014-0.007C52.434,69.104,52.448,69.077,52.42,69.015z"/>
			<path fill="#FFCB05" d="M64.738,59.012c-0.647-0.64-0.403-1.119-1.189-1.787C63.786,57.53,64.23,58.664,64.738,59.012z"/>
			<path fill="#FFCB05" d="M38.226,78.162l0.034-0.076C38.239,78.113,38.226,78.148,38.226,78.162z"/>
			<path fill="#FFCB05" d="M63.549,57.225c0-0.007,0-0.007,0-0.007l-0.076-0.069C63.507,57.177,63.528,57.197,63.549,57.225z"/>
			<path fill="#FFCB05" d="M55.242,66.165c-0.119-0.111-0.215-0.202-0.306-0.278C54.999,65.956,55.082,66.046,55.242,66.165z"/>
			<path fill="#FFCB05" d="M52.038,67.116l0.132,0.042C52.093,67.116,52.059,67.109,52.038,67.116z"/>
			<path fill="#FFCB05" d="M55.604,64.225c0.084,0.027,0.181,0.118,0.139-0.013c-0.034-0.028-0.063-0.049-0.083-0.077
				C55.722,64.245,55.743,64.308,55.604,64.225z"/>
			<path fill="#FFCB05" d="M56.883,63.21c-0.056-0.056-0.098-0.084-0.146-0.132l-0.007,0.069L56.883,63.21z"/>
			<path fill="#FFCB05" d="M82.616,43.398c0.077,0.111,0.146,0.244,0.208,0.369C82.693,43.468,82.922,43.336,82.616,43.398z"/>
			<path fill="#FFCB05" d="M38.247,78.253c-0.021-0.035-0.035-0.063-0.021-0.091l-0.028,0.056
				C38.211,78.238,38.226,78.253,38.247,78.253z"/>
			<path fill="#FFCB05" d="M50.766,58.476l0.292-0.09C50.939,58.372,50.835,58.407,50.766,58.476z"/>
			<path fill="#FFCB05" d="M70.542,46.715l0.014-0.118C70.521,46.583,70.514,46.617,70.542,46.715z"/>
			<path fill="#FFCB05" d="M51.565,57.705c0.257,0.229,0.424,0.348,0.549,0.403c-0.042-0.063-0.069-0.119-0.139-0.209L51.565,57.705
				z"/>
			<path fill="#FFCB05" d="M82.825,43.768L82.825,43.768L82.825,43.768z"/>
			<path fill="#FFCB05" d="M84.375,42.711c-0.278-0.007,0.007,0.451,0.028,0.716c-0.265,0.167-0.25-0.334-0.431-0.563
				c-0.16,0.125-0.173,0.597-0.319,0.597c-0.042-0.083-0.077-0.11-0.077-0.223c-0.077,0.432-0.619,0.084-0.674,0.668
				c-0.035-0.048-0.063-0.09-0.077-0.139c0.132,0.278,0.229,0.563,0.285,0.765c-0.111,0.034-0.083,0.403-0.25,0.042
				c0.07,0,0.021-0.154,0.021-0.278l-0.069,0.188c-0.285-0.515,0.104-0.216-0.028-0.604c-0.181,0.202-0.292,0.729-0.521,0.618
				c-0.222-0.542,0.362-0.271-0.042-0.709l0.348,0.153c-0.494-0.801,0.188,0.027-0.306-0.835c-0.438-0.117-0.333,0.334-0.765,0.223
				c0.028,0.327,0.195,0.459,0.215,0.793c-0.306,0.709-0.931-1.404-1.035-0.549c0.035,0.417,0.278,1.216-0.139,0.861l-0.167-0.729
				c-0.389-0.015,0.174,1.07-0.375,0.66c-0.042-0.299,0.188-0.292,0.104-0.368c-0.458-0.536-0.021,0.444-0.201,0.479l-0.285-0.646
				c-0.354,0.16-0.57,0.771-0.931,1.015c-0.063-0.215-0.077-0.459-0.264-0.646c-0.382,0.479-1.147,0.195-1.87-0.152l0.09,0.716
				c-0.049,0.007-0.215-0.285-0.222-0.432c-0.306-0.2,0.173,0.438,0.181,0.724c-0.09,0.076-0.313-0.355-0.32-0.57
				c-0.125,0.646-0.438,1.564-1.133,0.924l-0.014-0.236c-0.417-0.201,0.327,1.571-0.222,0.995l-0.014-0.146
				c-0.751-0.117-1.078,0.82-2.086-0.166c0.424,1.125-0.841-0.278-0.132,1.285c-0.709-0.633-0.744-0.952-1.488-1.293
				c-0.173-0.027,0.292,1.063,0.223,1.3l-0.424-0.834l0.229,0.966l-0.618-0.959l-0.042,0.278c0.084,0.021,0.32,0.326,0.431,0.569
				c-0.035,0.48-0.862-0.354-1.098-0.792l-0.181,0.945c-0.16-0.348-0.132-0.507-0.174-0.751c0.16,0.987-0.521-0.89-0.375,0.021
				c0.139,0.181,0.244,0.521,0.334,0.694c-0.41-0.458-0.729-0.347-0.827-0.021l-0.278-0.618c-0.487,0.027-0.695,0.674-1.147,0.868
				c0.313,0.209,0.862,1.286,0.785,1.453l-0.57-0.91c0.236,0.618,0.327,0.284,0.556,1.077c-0.229-0.028-0.709-1.008-0.771-1.362
				l-0.028,0.424c-0.173-0.278-0.201-0.445-0.389-0.813c0.243,0.626-0.89-0.778-0.438,0.299l-0.167-0.277
				c-0.459,0.201-0.479,0.625-0.82,0.854c0.48,0.827,0.229,0.709,0.507,1.432c-0.417-0.132-1.091-0.625-1.355-0.382
				c0.028,0.542,0.354,0.744,0.556,1.286c-0.473-0.744-0.737-0.5-0.904-1.134c-0.299,0.334-0.389,0.425-0.472,1.308
				c0.243,0.278,0.382,0.382,0.521,0.66c-0.013,0.174-0.396-0.209-0.611-0.584l-0.027-0.091c0.208,1.446-2.614-1.509-2.016,0.327
				l-0.035-0.098l0.111,1.085c-0.271,0-0.257-0.646-0.709-1.021c0.389,1.563-0.842,0.284-0.64,1.376
				c-1.808-2.037-0.904,0.841-2.28-0.313l0.39,0.507c0.264,0.576-0.327-0.215-0.487-0.278c0.299,0.396,0.438,0.39,0.577,0.717
				c-0.397,1.188-2.26,0.451-3.435,0.674c-0.402,0.111,1.814,2.752,0.522,1.842l-0.605-1.015c0.25,1.6-1.272,0.959-1.119,2.371
				c-0.125-0.243-0.34-0.515-0.285-0.557c-0.653-0.556-0.487,0.348-0.048,0.882c-0.132,0.021-0.411-0.458-0.682-0.681
				c-0.431-0.278,0.375,1.105-0.208,0.515c-0.097-0.09-0.139-0.243-0.16-0.313c0.174,0.389-0.424,0.25,0.257,0.932
				c-0.494-0.16-0.118,0.688-0.647,0.403c0.571,0.917-0.681-0.049,0.25,1.125c-0.987-1.202-1.168-0.611-0.834,0.063
				c-0.25-0.402-0.417-0.264-0.785-0.799c-0.132,0.16-0.083,0.501,0.451,1.077c-1.459-1.111,0.411,1.606-1.265,0.015
				c0.091,1.021,0.077,1.828-0.069,2.468c-0.966-1.091,0.313-0.536-0.737-1.669c0.063,0.841,0.695,1.967,0.111,2.079
				c-0.222-0.049-0.375-0.515-0.507-0.724c0.048,0.807-0.751,0.646-0.542,1.536c-0.083-0.097-0.146-0.236-0.188-0.34
				c-0.035,0.09-0.285,0,0.153,0.451l-0.056-0.188c0.737,0.57,1.07,1.641,1.39,1.995c-1.133-1.404-0.619-0.007-2.016-1.814
				c0.049,0.125,0.195,0.396,0.494,0.688c-0.139-0.021-0.327-0.174-0.591-0.585c0.014,0.481,0.542,0.869,0.34,1.071
				c-0.208-0.216-0.243-0.341-0.473-0.611c0.306,0.528,0.604,1.043,0.271,1.043c-0.125-0.14-0.299-0.285-0.244-0.334
				c-0.223,0.382,0.556,1.585-0.118,1.551c-0.771-0.967-0.382-0.161-1.14-0.898l0.062,0.425l0.424,0.278
				c-0.146,0.153,0.264,0.834-0.097,0.737l-0.195-0.425l-0.125,0.444l0.424,0.105c0.237,0.534,0.952,0.889,0.549,0.903
				c-0.034-0.111-0.152,0.146-0.653-0.188l0,0c0.16,0.3,0.327,0.613,0.042,0.557c-0.25-0.188-0.765-0.786-0.931-0.918
				c0.521,0.661-0.16,0.557,0.375,1.252c-0.118-0.175-0.486-0.528-0.563-0.591l0.417,0.528c-0.223-0.077-0.307-0.133-0.578-0.424
				c-0.278,0.146,0.938,0.765,0.327,0.674c-0.021-0.056-0.098-0.111-0.132-0.223c-0.424,0.09-0.153,0.8-0.59,0.834
				c-0.731-0.556,0.014-0.375-0.619-0.82c-0.167,0.501,0.174,1.495-0.271,1.704l0.118-0.007c0.848,0.861-0.646-0.126-0.361,0.437
				c-0.028-0.097-0.445-0.493-0.355-0.396c-0.319,0.132-0.153,0.723-0.181,1.321l-0.181-0.23c-0.292-0.014-0.382,0.299-0.591,0.383
				c0.167,0.223,0.063,0.285,0.396,0.487c-0.758-0.258-0.758,0.131-0.758,0.5c0,0.376,0,0.729-0.57,0.604
				c0.028-0.056-0.076-0.264-0.104-0.216l-0.097,0.515c0.306,0.216,0.208,0.09,0.494,0.209c0.132,0.194,0.181,0.402,0.111,0.486
				c-0.055-0.313-0.466-0.383-0.66-0.438c0.09,0.063,0.167,0.168,0.257,0.229c-0.639-0.223,0.528,0.5-0.007,0.473l-0.132-0.125
				c0,0.152,0.111,0.39-0.014,0.459c-0.333-0.209-0.063-0.216-0.306-0.432c-0.083,0.167,0.333,0.751-0.063,0.647
				c-0.028-0.132,0.042-0.223,0.007-0.354c-0.459-0.14-0.375-0.042-0.507,0.027l0.014-0.007l-0.306,0.153h0.125
				c0.577,0.771-0.125,0.514,0.125,1.119c-0.222-0.57-0.202-0.229-0.465-0.473c-0.118,0-0.264,0.041-0.32-0.042
				c0.132,0.292-0.286,0.083-0.09,0.515c-0.083-0.056-0.083,0.132-0.265-0.056c-0.028,0.229,0.153,0.069,0.25,0.159
				c0.097,0.459-0.633,0.39-0.528,1.022c-0.063,0.41,0.077,0.611-0.048,0.945c-0.153,0.027-0.125-0.223-0.125-0.223
				c-0.174,0.098-0.23,0.236-0.278,0.417c-0.021-0.056-0.07-0.049-0.146-0.035c-0.056,0.125,0.097,0.188-0.063,0.3
				c-0.014-0.056-0.063-0.14-0.076-0.236c-0.035,0.181-0.056,0.368-0.118,0.534c-0.076,0-0.028-0.152-0.035-0.229
				c-0.062,0.188-0.187,0.48-0.173,0.57l0.09-0.083c-0.035,0.056-0.069-0.007-0.056-0.069c0.028-0.181,0.146-0.188,0.181-0.167
				l-0.049,0.111c0.23,0.021,0.257-0.417,0.382-0.633l0.104,0.216c0.007,0,0.014-0.307,0.014-0.313
				c0.069-0.007,0.208,0.042,0.153,0.16c0.208-0.063,0.028-0.174,0.236-0.209c0.028,0,0.035,0.015,0.028,0.035l0.056-0.173
				c0.021,0.055,0.167,0.097,0.062,0.145c0.355-0.117,0.167-0.5,0.425-0.444L39.47,77.78c0.208-0.383-0.146-0.175-0.195-0.612
				l0.661,0.243l-0.188-0.201c0.034-0.028,0.104-0.076,0.188,0.007c-0.049-0.25-0.118-0.063-0.201-0.25
				c0.347,0.014,0.257-0.535,0.695-0.25c-0.146-0.216-0.278,0.027-0.271-0.251c0.487,0.313,0.091-0.264,0.417-0.243
				c0.208,0.243-0.042,0.271,0.306,0.307c-0.333-0.425,0.348-0.195,0.382-0.376c-0.347-0.299,0.098-0.382,0.153-0.688
				c0.118,0.118,0.584-0.181,0.924-0.229l0.07,0.063c-0.403-0.389-0.139-0.507-0.09-0.723c0.264,0.229,0.348,0.348,0.39,0.521
				l0.132-0.125c-0.118-0.153-0.153-0.257-0.118-0.383l0.312,0.327c0.167-0.174-0.069-0.688,0.404-0.688
				c-0.341-0.313-1.119-0.633-1.147-1.084c0.195,0.152,0.529,0.417,0.55,0.549c-0.007-0.042-0.09-0.208,0.035-0.188l0.222,0.376
				c0.236,0.014-0.215-0.279-0.111-0.335c0.271,0.23,0.25,0.104,0.452,0.307c0.007,0.035-0.181-0.035-0.098,0.091
				c0.132-0.049,0.404-0.014,0.654,0.132c-0.167-0.125-0.368-0.319-0.341-0.417c0.153-0.181,0.389,0.236,0.639,0.271
				c-0.152-0.209,0.167-0.133-0.264-0.516c0.056-0.049,0.264,0.125,0.403,0.209c-0.097-0.258,0.369-0.445-0.208-0.765h-0.056
				c0-0.014,0-0.021-0.007-0.035l0,0l0,0c-0.167-0.694,0.849-0.368,0.932-0.833l0.16,0.152c-0.014-0.348,0.265-0.479,0.028-0.932
				c0.048-0.049,0.424,0.167,0.604,0.375c0.014-0.243-0.167-0.438,0.306-0.354c0.167,0.396,0.313,0.202,0.083,0.327
				c0.32-0.021,0.653,0.209,0.362-0.403c0.382,0.473,0.702,0.417,0.646,0.216l-0.445-0.195c0.028-0.146,0.146-0.18,0.271-0.222
				l0.557,0.604c1.119,0.41-0.605-1.766,0.931-0.799c-0.341-0.508-0.5-0.126-0.931-0.688c0.25-0.076,1.334,0.653,1.39,0.611
				c0.591,0.153-0.716-1.084-0.236-1.063c-0.264-0.201-0.903-0.771-0.952-1.153c0.236-0.077,1.175,0.778,1.258,1.05
				c-0.021,0.055-0.118,0-0.195-0.077c0.035,0.125,0.063,0.285,0.382,0.473l-0.215-0.243c0.32,0.167,0.528-0.063,0.855,0.368
				c-0.09-0.326-0.327-0.431-0.542-0.473c0.556,0.153,0.348-0.278,0.792-0.236c-0.167-0.104-0.479-0.354-0.444-0.382
				c0.619,0.014-0.313-0.585-0.202-0.89c0.493,0.264,0.834,0.925,0.75,0.431c0.382,0.139,0.667,0.632,0.813,0.868
				c-0.257-0.639,0.696,0.021,0.911,0.021l0.083,0.285c-0.049-0.167,0.007-0.209,0.063-0.243l-0.556-0.459
				c0.153,0.042,0.215,0,0.417,0.208c-0.257-0.382-0.869-0.792-1.182-1.355c0.333,0.188-0.007-0.493,0.674,0.168
				c-0.487-0.021,0.695,0.652,0.57,0.945c-0.035-0.112,0.021-0.154,0.174-0.112c0.083,0.07,0.132,0.153,0.146,0.202
				c0.848,0.424-0.619-0.869-0.341-1.063c0.341,0.424,0.771,0.695,0.73,0.583c-0.104,0.07-0.667-0.61-0.862-1.001
				c0.459,0.175-0.035-0.375,0.09-0.417l-0.236-0.055c-0.348-0.432-0.215-0.452-0.215-0.675c0.299,0.299,0.098,0.307,0.264,0.41
				c-0.535-0.826,0.987,0.479,0.717-0.146c0.34,0.201,0.729,0.765,0.98,0.889c-0.299-0.694,0.736,0.397,0.548-0.215
				c-0.576-0.515-0.465-0.368-0.82-1.043l0.021,0.689l-0.528-1.001c-0.111,0.083,0.097,0.534-0.056,0.5
				c-0.306-0.542-0.188-0.396-0.667-0.82c0.917,0.716-0.167-0.729,0.522-0.313l1.271,1.405c0.828,0.423-0.208-1.092,0.431-1.009
				l-0.327-0.16c-0.466-0.611,0.125-0.257,0.028-0.569c0.424,0.493,0.646,0.618,0.966,0.883c-0.327-0.355,0.277-0.153-0.563-1.154
				l0.723,0.535c0.508,0.063-0.931-1.654-0.521-1.703c0.389,0.612,0.82,0.876,0.987,1.405c0.09-0.063,0.25-0.035-0.056-0.384
				c0.327,0.278-0.348-0.868,0.153-0.451c-0.16-0.25-0.605-0.793-0.473-0.828c0.104,0.091,0.215,0.251,0.215,0.251
				c-0.215-0.251-0.146-0.466-0.702-0.959c1.62,1.39,0.632-0.729,2.037,0.479c0.035-0.327,0.118-0.682,0.264-0.862
				c0.118,0.174,0.215,0.271,0.139,0.244c0.633,0.305-1.105-1.655-0.389-1.321c0.834,0.758,0.236,0.584,0.583,0.848
				c1.474,1.731,0.132-0.501,1.154,0.403l0.042,0.139c0.625,0.508-0.195-0.931,0.139-0.966c0,0,0.104,0.16,0.208,0.271
				c-0.57-1.043-0.5-1.571-0.479-1.995c0.479,0.758,0.188,0.451,0.792,1.14c0.028-0.174-0.932-1.14-0.883-1.502
				c0.362,0.349,0.771,0.585,1.384,1.35l-0.153,0.181c0.869,0.932,0.216-0.216,0.452-0.111l0.32,0.451
				c0.174-0.354-0.667-1.479-0.292-1.626l-0.292-0.32c-0.661-1.236,0.611,0.516,0.167-0.437l0.89,1.098
				c-0.098-0.361-0.425-1.384-0.383-1.767c0.507,0.938,0.591,1.544,0.82,2.148c0.111-0.069,0.306-0.354-0.042-0.967
				c0.028,0.146,0.181,0.467,0.007,0.327c-0.528-0.994-0.674-1.585-0.424-1.717c1.564,2.252,1.001,0.152,2.391,1.772
				c-0.194-1.099,1.022-0.188,1.376-0.64c-1.362-1.641,0.091-0.139-1.161-1.919c0.028-0.201,0.09-0.194,0.181-0.083l1.05,0.849
				c0.431,0.473,0.167,0.465,0.452,0.869c0.327-0.028,0.612,0.702,1.084,1.07c-0.465-0.626-0.548-0.987-0.25-0.835l-0.737-0.702
				c-0.319-1.195,1.279,1.321,0.966,0.14l0.278,0.639c-0.055-0.451,0.619-0.402-0.152-1.974c0.167,0.188,0.521,0.661,0.528,0.842
				c0.535-0.049-0.077-2.148,0.806-1.467l0.236,0.465c0-0.187-0.382-0.923-0.007-0.542c0.104,0.181,0.237,0.466,0.299,0.466
				c-0.063-0.181-0.285-0.917-0.028-0.723l0.216,0.55c0.744,0.313-0.125-1.621,0.035-2.148c0.765,1.293,1.328,1.515,1.606,1.619
				l0.097,0.188c0.549-0.146,0.167-1.577,0.334-2.355c1.036,1.209,1.23-0.007,2.064,0.466c-0.188-0.182-0.508-0.98-0.5-1.155
				c0.236,0.182-0.173-1.042,0.417,0.105h-0.049c0.661,1.07,0.716,0.639,0.896,0.57l-0.744-1.488c1.522,1.855,0.758-1.46,1.94,0.271
				c-0.077-0.432,0.055-0.501-0.014-0.918l0.362,0.758c0.382,0.007,0.563,0.007,0.827-0.403l0.188,0.577
				c0.208-0.09-0.765-2.287-0.577-2.434l0.563,1.057c0.354-0.215,1.133,0.494,1.05-0.674c0.062,0.146,0.194,0.459,0.146,0.535
				c0.188-0.076,0.945,0.292,0.271-1.077c0.403,0.91,0.403-0.14,0.431-0.646l0.25,0.688c-0.194-0.946-0.285-1.183-0.153-1.536
				c0.097,0.049,0.271,0.486,0.132,0.367c0.327,0.236-0.118-0.688,0.257-0.458l0.09,0.451c0.209-0.055,0.104-0.257,0.014-0.785
				c0.021-0.313,0.446-0.021,0.696,0.528c-0.111-0.361-0.188-0.868-0.007-0.765c0.098,0.202,0.111,0.354,0.119,0.425
				c0.479,0.243,0.201-0.939,0.66-0.473c0.077,0.194,0.125,0.284,0.173,0.333c-0.264,0.132-0.479,0.201-0.479,0.146
				c0.223,0.555,0.466,0.535,0.612,1.396c-0.014-0.521-0.083-1.571,0.215-1.425c0.028,0.049,0.056,0.09,0.098,0.174v0.063
				c0.069,0.028,0.083-0.042,0.09-0.153c0.097,0.049,0.167,0.091,0.229,0.056c0.181,0.417,0.313,0.091,0.417,0.056
				c-0.216-0.557-0.049-0.542-0.354-0.924c0.035,0.028,0.007,0.069-0.049,0.132c-0.007,0.021-0.028,0.042-0.021,0.084l-0.007-0.056
				c-0.069,0.056-0.146,0.111-0.25,0.173c-0.028-0.333-0.028-0.611,0.209-0.361c-0.083-0.39-0.16-0.785-0.202-0.973
				c0.438,0.709,0.869,0.98,1.078,1.417c0.202-0.472,0.653-0.618,0.528-1.646c0.056-0.153,0.195,0.216,0.285,0.348
				c-0.014,0.117-0.09,0.132-0.063,0.284c0.09-0.333,0.494-0.368,0.327-1.001c0.333,0.167,0.069,0.633,0.348,0.369l0.021,0.209
				c0.48,0.318,0.584-0.223,0.751-0.654c0.153-0.452,0.361-0.8,0.876-0.444c-0.063-0.042-0.104-0.057-0.139-0.14
				c0.479,0.049,0.855-0.25,1.258-0.486c0.396-0.25,0.82-0.403,1.286-0.354c0.25-0.007,0.222-0.223,0.326-0.417l0.111,0.216
				l0.174-0.355c0.313-0.264,0.709,0.201,1.071-0.25l-0.083-0.076c0.16-0.049,0.494-0.223,0.486-0.125
				c0.014-0.028,0.028-0.098,0.104-0.084l0.021,0.056c0,0,0.091-0.063,0.181-0.117c0.09-0.057,0.181-0.105,0.181-0.105
				c0.313-0.09-0.014,0.16,0.417-0.049c0.153-0.11,0.452-0.243,0.389-0.215c-0.063,0.021-0.167,0.056-0.174,0.049l0.146-0.049
				c0.028-0.021,0.16,0.021-0.25-0.028c0-0.007-0.278,0.007-0.278,0.014l-0.09-0.034l0.236,0.007c-0.146-0.035-0.222-0.021-0.313,0
				c-0.028-0.021-0.07-0.035-0.132-0.056c0-0.007-0.25,0.098-0.243,0.098c-0.049-0.049,0.097-0.084-0.09-0.132
				c-0.125,0.062,0.146,0.117-0.056,0.166c-0.153-0.063-0.125-0.132-0.264-0.063c-0.035-0.049-0.007-0.076,0.048-0.09
				c-0.125,0.041-0.375,0-0.417,0.111c-0.167-0.125-0.466,0.041-0.508-0.201c-0.028,0.055-0.194,0.208-0.319,0.229
				c0.146-0.348-0.487,0-0.529-0.409c-0.083,0.347-0.597,0.152-0.848,0.402c0.014-0.042,0.021-0.118,0.055-0.091
				c-0.181-0.027-0.271-0.166-0.41-0.25c0.084,0.376-0.159,0.479-0.229,0.751c-0.327-0.375-0.014-0.487-0.181-0.861
				c0.104,0.325-0.278,0.347-0.125,0.632c-0.237-0.236-0.174-0.104-0.361-0.458c0.131,0.556-0.132,0.097-0.153,0.465
				c-0.32-0.265-0.229-0.542-0.438-0.348C84.201,42.926,84.375,42.711,84.375,42.711z M78.751,45.04c0-0.007,0-0.007,0-0.007
				c0.042-0.035,0.083-0.057,0.104-0.07C78.834,44.977,78.807,44.998,78.751,45.04z M78.271,45.191
				c0.063,0.008,0.139-0.014,0.216-0.041c0.097,0.202,0.16,0.425,0.111,0.425C78.571,45.429,78.404,45.346,78.271,45.191z
				 M80.802,48.814c-0.028,0.125-0.098,0.021-0.153-0.084c0.035-0.035,0.063-0.076,0.09-0.139c0-0.028-0.014-0.049-0.014-0.077
				C80.753,48.627,80.789,48.73,80.802,48.814z"/>
			<path fill="#FFCB05" d="M80.642,48.008c0.007-0.021,0.007-0.042,0.014-0.063c-0.035-0.034-0.063-0.069-0.083-0.098
				c0.014,0.063,0.021,0.125,0.042,0.188L80.642,48.008z"/>
			<path fill="#FFCB05" d="M44.224,72.858h0.014c-0.021-0.007-0.049-0.014-0.077-0.035C44.189,72.838,44.203,72.845,44.224,72.858z"
				/>
			<polygon fill="#FFCB05" points="70.89,46.117 70.987,46.312 70.952,46.124 			"/>
			<path fill="#FFCB05" d="M41.138,73.817c-0.035-0.021-0.077-0.034-0.119-0.041C41.047,73.797,41.082,73.804,41.138,73.817z"/>
			<path fill="#FFCB05" d="M40.374,74.742l-0.188,0.056C40.283,74.784,40.339,74.764,40.374,74.742z"/>
			<path fill="#FFCB05" d="M39.762,75.431c0.042,0.042,0.069,0.076,0.104,0.104l0,0L39.762,75.431z"/>
			<path fill="#FFCB05" d="M47.999,62.939c0-0.021,0-0.035-0.007-0.063C47.936,62.689,47.943,62.786,47.999,62.939z"/>
			<path fill="#FFCB05" d="M46.4,67.589c-0.07-0.132-0.132-0.264-0.16-0.361C46.143,67.249,46.094,67.283,46.4,67.589z"/>
			<polygon fill="#FFCB05" points="50.731,58.482 50.745,58.497 50.766,58.476 			"/>
			<path fill="#FFCB05" d="M46.379,67.089c-0.16-0.049-0.181,0.021-0.139,0.139C46.31,67.214,46.421,67.214,46.379,67.089z"/>
			<polygon fill="#FFCB05" points="37.815,78.941 37.794,78.982 37.801,78.997 			"/>
			<path fill="#FFCB05" d="M37.801,78.997l-0.007,0.049C37.794,79.024,37.808,79.011,37.801,78.997z"/>
			<path fill="#FFCB05" d="M37.753,79.149l0.042-0.104C37.773,79.08,37.753,79.114,37.753,79.149z"/>
			<path fill="#FFCB05" d="M38.413,77.877l-0.042-0.049C38.372,77.843,38.392,77.856,38.413,77.877z"/>
			<path fill="#FFCB05" d="M38.573,77.53c-0.056,0.068-0.216,0.117-0.236,0.257l0.035,0.041
				C38.316,77.718,38.622,77.683,38.573,77.53z"/>
			<path fill="#FFCB05" d="M40.325,76.967l-0.278,0.174c0.125,0.027,0.285,0.063,0.202,0.173
				C40.776,77.244,40.012,77.224,40.325,76.967z"/>
			<path fill="#FFCB05" d="M41.131,76.396c-0.077,0.153,0.146,0.111,0.195,0.174C41.312,76.424,41.305,76.383,41.131,76.396z"/>
			<path fill="#FFCB05" d="M46.108,71.69l0.424,0.418C46.56,71.962,46.365,71.948,46.108,71.69z"/>
			<polygon fill="#FFCB05" points="44.69,68.576 44.322,68.409 44.704,68.848 			"/>
			<polygon fill="#FFCB05" points="48.59,71.204 48.611,71.308 48.604,71.017 			"/>
			<path fill="#FFCB05" d="M57.209,64.052l-0.73-0.814C56.542,63.433,57.307,64.385,57.209,64.052z"/>
			<path fill="#FFCB05" d="M60.358,60.248c0.376,0.418,0.702,0.627,0.438,0.14C60.665,60.388,60.316,60.104,60.358,60.248z"/>
			<polygon fill="#FFCB05" points="73.225,53.646 73.294,53.985 73.322,53.646 			"/>
		</g>
	</g>
</g>
</svg>
